<svg id="Layer_1" data-name="Layer 1" xmlns="http://www.w3.org/2000/svg" viewBox="0 0 42.47 32.32">
  <defs>
    <style>
      .cls-1 {
        fill: #e40046;
      }

      .cls-1, .cls-2 {
        stroke-width: 0px;
      }

      .cls-2 {
        fill: #545454;
      }
    </style>
  </defs>
  <path class="cls-1" d="M39.76,25.24h-9.42c-8.23-.01-16.46-.1-24.68,0-2.54.03-3.61-.73-3.46-3.41.19-3.48-.03-6.98.04-10.47.06-2.99,1.35-4.37,4.36-4.39,9.72-.06,19.45-.03,29.17.03,2.2.01,3.95.88,3.98,3.45.05,4.71,0,9.43,0,14.8h0ZM31.3,20.68c.22-3,2.75-3.21,5.28-4.78-4.29.25-4.26-2.71-5.44-4.87-.48,2.93-2.21,4.46-5.52,5.1,2.42,1.48,5.82.66,5.68,4.55ZM15.98,16.67c-3.52-2.13-8.54-1.85-10.27.43,3.39.09,6.59.59,10.27-.43Z"/>
  <path class="cls-2" d="M42.46,32.32H.33c-.81-3.67-.27-4.61,3.28-4.63,11.72-.07,23.44-.07,35.17.01,3.4.02,3.78.64,3.68,4.62Z"/>
  <path class="cls-2" d="M16.21,4.67H5.7C5.29.97,5.85.22,9.03.05,10.14-.01,11.26,0,12.37.05c3.37.14,3.83.67,3.84,4.63h0Z"/>
  <path class="cls-2" d="M36.76,4.8c-3.69,0-7.13.26-10.54-.19-.33-3.65.14-4.33,3.15-4.55,1.24-.09,2.49-.06,3.73,0,3.05.15,3.5.69,3.66,4.75h0Z"/>
</svg>