<?xml version="1.0" encoding="UTF-8"?>
<svg id="Layer_1" data-name="Layer 1" xmlns="http://www.w3.org/2000/svg" viewBox="0 0 91.16 47.61">
  <defs>
    <style>
      .cls-1 {
        fill: #e40046;
      }

      .cls-1, .cls-2, .cls-3 {
        stroke-width: 0px;
      }

      .cls-2 {
        fill: #535254;
      }

      .cls-3 {
        fill: #fdfdfd;
      }
    </style>
  </defs>
  <path class="cls-2" d="M86.21,41.53c-.96-4.26-3.42-7.31-8.07-7.29-4.49.02-6.86,3.02-7.9,7.46h-19.12c-5,0-10,0-14.99-.02-1.19,0-2.29.22-3.05-1.39-3.39-7.22-7.68-8.05-14.03-2.9-6.27-5.55-12.19-3.74-14.9,4.06q-4.02.25-4.08-3.61c-.03-2.47,0-4.94,0-7.75h66.59v-15.23c1.57-1.03,2.86-.79,4.08-.74,1.27.06,2.1-.2,2.55-1.56.75-2.29,1.9-2.38,2.7-.09.56,1.6,1.57,1.81,2.88,1.62,2.56-.38,4.21.75,5.54,2.84,1.07,1.68,2.35,3.23,3.59,4.8,2.63,3.35,3.07,6.85.9,10.62-.62,1.07-.7,2.33.56,2.91,2.24,1.04,1.78,2.8,1.31,4.45-.43,1.5-1.38,1.78-4.54,1.81h-.02ZM69.33,24.11c4.32.39,8.35,1.37,11.52,4.2,1.91,1.71,3.8,2.05,6.35,1.43,1.48-5.65-2.74-9.14-5.87-11.98-3.09-2.81-7.95-.71-11.99-1v7.35h-.01Z"/>
  <path class="cls-2" d="M57.09,21.83c-1.24-4.43-3.49-7.44-8.12-7.37-4.6.07-6.76,3.19-7.95,7.29h-20.33c-.77-.49-.81-1.42-1.13-2.2-1.31-3.21-3.67-4.99-7.15-5.1-3.37-.11-6.14,1.75-7.33,5.25-.6,1.77-1.42,2.47-3.2,2.15C0,21.53-.16,20.06.09,18.7c.66-3.58,1.8-7.06,1.63-10.81-.06-1.31,1.47-1.75,2.59-1.51,3.24.7,5.57-.86,7.66-2.93C14.75.7,18.03.13,21.85.03c7.25-.18,14.17.22,20.18,4.93,4.07,3.19,9.01,4.31,13.96,4.87,4.64.52,6.45,3.86,8.29,7.22,1.01,1.85-.65,4.44-2.84,4.75-1.34.19-2.73.04-4.34.04h0ZM26.35,2.87c-.39,2.07-.3,4.02-.07,6.54,5.05-.75,10.07,1.12,15.1-.81-4.38-3.48-8.51-7.17-15.03-5.73ZM23.33,3.13c-5.62-1.42-7.63-.38-9.68,5.26,3.23,1.02,6.44.74,9.66.76.16-2.33.31-4.18.01-6.02h.01ZM60.48,15.32c-.51-2.06-1.36-3.08-3.47-3.11.48,1.84,1.19,2.94,3.47,3.11Z"/>
  <path class="cls-1" d="M18.03,22.36c.02,2.98-2.73,6.03-5.43,6.02-2.52-.01-5.87-3.31-5.97-5.89-.13-3.06,2.45-5.82,5.49-5.87,3.47-.06,5.9,2.3,5.92,5.74h-.01ZM14.94,21.93c.07-2-1.24-2.28-2.73-2.29-1.75-.01-2.6,1.29-2.57,2.64.02,1.34.87,2.67,2.66,2.49,1.71-.17,2.83-.97,2.64-2.84Z"/>
  <path class="cls-1" d="M43.49,22.15c0-3.17,2.53-5.64,5.7-5.57,3.2.07,5.63,2.5,5.68,5.68.05,2.8-2.84,5.64-5.8,5.71-3,.07-5.58-2.62-5.58-5.82ZM48.68,19.75c-1.68-.15-2.1.94-2.1,2.58s.84,2.36,2.24,2.37c1.55,0,2.68-.92,2.66-2.52-.02-1.51-.81-2.61-2.8-2.42h0Z"/>
  <path class="cls-1" d="M84.03,42.39c.02,2.99-2.5,5.16-5.99,5.16-3.2,0-5.28-2.08-5.38-5.38-.1-3.37,2.11-5.86,5.26-5.93,3.27-.07,6.08,2.76,6.11,6.15ZM78.29,44.57c1.33-.35,2.64-.73,2.69-2.5.06-1.96-1.24-2.56-2.84-2.68-1.66-.13-2.64.99-2.75,2.41-.14,1.81,1.26,2.49,2.9,2.77Z"/>
  <path class="cls-1" d="M18.04,42.06c0,3.09-2.67,5.61-5.85,5.53-3.24-.08-5.58-2.46-5.56-5.66.02-2.87,2.63-5.62,5.39-5.68,3.25-.07,6.02,2.61,6.02,5.81ZM12.44,44.89c1.03-.75,2.64-1.01,2.48-2.79-.15-1.72-1.15-2.74-2.89-2.7-1.62.03-2.49,1.33-2.58,2.63-.12,1.77,1.51,2.34,2.99,2.87h0Z"/>
  <path class="cls-1" d="M25.46,47.61c-2.82,0-5.38-2.69-5.39-5.65-.01-3.17,2.57-5.78,5.63-5.71,2.83.07,5.62,2.93,5.73,5.88.1,2.71-2.93,5.5-5.97,5.48ZM28.43,41.78c-.68-1.14-1.29-2.66-3.1-2.38-1.59.24-2.77,1.3-2.53,3.02.2,1.43,1.52,2.49,2.81,2.4,1.41-.1,2.7-1.09,2.83-3.04h0Z"/>
  <path class="cls-3" d="M60.48,15.32c-2.29-.16-3-1.27-3.47-3.11,2.12.02,2.97,1.04,3.47,3.11Z"/>
</svg>