<?xml version="1.0" encoding="UTF-8"?>
<svg id="Layer_1" data-name="Layer 1" xmlns="http://www.w3.org/2000/svg" viewBox="0 0 77.25 30.6">
  <defs>
    <style>
      .cls-1 {
        fill: #e40046;
      }

      .cls-1, .cls-2, .cls-3 {
        stroke-width: 0px;
      }

      .cls-2 {
        fill: #fefefd;
      }

      .cls-3 {
        fill: #555;
      }
    </style>
  </defs>
  <path class="cls-3" d="M30.61,24.76c-1.5,0-3-.06-4.5.01-3.27.16-5.81.23-7.56-3.86-2.19-5.1-10.19-4.6-12.96.33-.42.75-.67,1.61-.96,2.43-.53,1.53-1.82,1.02-2.85,1.02s-1.6-.65-1.61-1.68c-.01-1.25-.47-2.9.15-3.66,1.83-2.25,1.2-4.73,1.25-7.14.04-2.01.68-3.27,2.84-2.83,3.09.62,5.31-.87,7.32-2.8,2.78-2.66,6-3.31,9.82-3.61,8.37-.65,15.76,1.24,22.55,6.06,1.52,1.07,3.05,1.75,5.43,1.27,2.46-.5,5.12,1.69,7.95,1.79.55.02.97.96.79,1.54-.85,2.75.63,4.78,1.88,6.94.85,1.47,1.47,3.07-.8,3.99-2.07.84-2.55-.53-3.08-2.09-1.14-3.37-3.73-4.96-7.13-5.09-3.53-.13-6.1,1.76-7.19,4.96-.74,2.19-1.91,2.51-3.85,2.41-2.5-.12-5-.03-7.5-.03v.04ZM41.36,11.5c-4.39-3.51-8.6-7.2-14.92-5.57-.56,2-.59,4.03.06,6.37,4.97-.31,9.92.95,14.86-.8ZM23.36,5.92c-6.7-.66-7.68-.12-9.66,5.4,3.21,1.12,6.42.67,9.63.77.3-2.28.29-4.11.03-6.16h0ZM51.89,13.88c.71,1.96,1.52,3.13,3.69,3.05-.57-1.87-1.29-3.05-3.69-3.05Z"/>
  <path class="cls-1" d="M67.05,17.85c0-.34.14-.78-.02-1.05-1.63-2.83-2.21-5.47-1.75-7.92-2.2.37-4.49,1.2-6.21-.94-.29-.36-.95-.15-1.39.14-.88.58-1.5,2.09-2.78,1.29-1.67-1.03-3.17-2.35-4.68-3.62-.5-.42-.57-1.09-.15-1.69.39-.57,1.14-1,1.59-.63,4.41,3.62,5.02-1.01,6.83-3.06.15-.17.43-.22.73-.37,2.08,1.4,1.61,4.43,3.94,6.03,2.63-1,5.58-1.7,8.73-1.76.04,1.7-.98,2.66-1.74,3.75-2.81,4.03-2.46,5.3,1.79,8,1.63,1.03,4.01.8,4.95,3.02.19.45.5.82.29,1.61-3.16,1.31-6.74.14-10.13,1.06-1.29,1.62.01,3.32-.07,4.98-.04.94.3,2.15-1.15,2.35-1.59.22-1.84-.94-1.92-2.12-.09-1.24-.06-2.5-.17-3.74q-.36-4.17,3.3-5.31v-.02Z"/>
  <path class="cls-1" d="M6.7,25.07c-.02-3.78,1.61-5.38,5.5-5.38,3.22,0,5.88,2.38,5.94,5.32.06,2.92-2.67,5.55-5.8,5.59-3.43.04-5.62-2.11-5.64-5.53ZM14.51,25.18c.13-1.55-.51-2.36-2.07-2.38-1.59-.03-2.6.5-2.57,2.29.02,1.43.51,2.32,2.12,2.34,1.62.03,2.61-.52,2.52-2.25Z"/>
  <path class="cls-1" d="M48.75,30.57c-3.16-.12-5.41-2.72-5.22-6,.18-2.95,2.6-4.96,5.9-4.89,3.1.06,5.66,2.75,5.5,5.79-.15,2.98-2.88,5.24-6.18,5.11h0ZM48.83,27.46c1.8-.04,2.93-.6,2.93-2.34s-1.14-2.33-2.69-2.32c-1.49.01-2.86.4-2.67,2.24.15,1.44.92,2.57,2.43,2.42Z"/>
  <path class="cls-2" d="M51.89,13.88c2.4,0,3.12,1.18,3.69,3.05-2.18.08-2.98-1.08-3.69-3.05Z"/>
</svg>