<svg id="Layer_1" data-name="Layer 1" xmlns="http://www.w3.org/2000/svg" viewBox="0 0 121.47 69.19">
  <defs>
    <style>
      .cls-1 {
        fill: #535353;
      }

      .cls-1, .cls-2, .cls-3 {
        stroke-width: 0px;
      }

      .cls-2 {
        fill: #e40046;
      }

      .cls-3 {
        fill: #fdfdfd;
      }
    </style>
  </defs>
  <path class="cls-1" d="M89.04,45.72v-20.24c1.61-1.12,2.97-.95,4.29-.89,2.08.09,3.78.13,4.52-2.59.67-2.44,2.7-2.2,3.29-.04.75,2.77,2.46,2.86,4.51,2.6,3.05-.38,4.98.94,6.55,3.45,1.41,2.25,3.13,4.31,4.8,6.38,3.68,4.55,4.52,9.32,1.45,14.56-.82,1.4-.92,3.12.79,3.87,2.79,1.22,2.37,3.46,1.87,5.47-.69,2.78-3.04,3.21-5.93,3-1.54-5.54-4.72-9.98-11.15-9.87-5.96.11-9.1,4.11-10.47,9.96h-28.55c-5.66,0-11.33,0-16.99,0-1.64,0-3.01.1-3.98-2-4.31-9.34-10.72-10.59-18.61-3.62-3.58-2.72-7.15-5.75-12.37-3.75-4.23,1.62-6.14,4.83-7.21,8.84C.25,61.7.09,61.59.02,56.13-.02,52.98.02,49.84.02,45.69c29.62,1.17,58.94.37,89.02.03ZM92.26,37.91c5.93.53,11.32,1.86,15.53,5.66,2.56,2.31,5.12,2.63,8.41,1.89,2.19-7.67-3.7-12.21-7.85-16.02-4.08-3.75-10.6-.96-16.09-1.33,0,0,0,9.8,0,9.8Z"/>
  <path class="cls-1" d="M57.89,26.06c1.79.11,3.59.22,5.46.34.73,2.62.31,4.12-2.59,4.04-1.33-.04-2.67-.08-3.98.09-5.12.67-7.38,3.44-8.36,10.32-3.62,1.11-7.44.32-11.18.5-1.98.1-3.66.04-5.25,1.92-2.23,2.64-5.5,2.84-7.88.28-1.64-1.77-3.63-1.98-5.52-2.58v-14.61c1.27-.16,2.55-.31,3.82-.47,1.12.4,2.26.38,3.4.1,1.4.34,2.81.39,4.22.05,3.57.6,7.26-.44,10.79.6-.13,2.07-1.05,3.55-2.75,4.44,1.18,1.43,1.88,3.11,2.73,4.7,1.18,2.21,3.32,2.16,4.17-.24.78-2.22,2.59-3.83,3.25-6.27-1.97-1.88-2.55-5.11-5.44-6.02-.92-.29-2.29.53-2.78-.94-.61-1.81,1.13-2.16,2.09-2.92,1.17-.93,2.39-1.82,3.68-2.58,1.74-1.03,3.18.77,2.64,1.49-3.22,4.29,2.14,5.37,2.83,8.14.27,1.09,1.6.84,2.29-.24,1.46-.04,2.92-.08,4.38-.13h-.02ZM22.37,36.59c2.63-1.96,4.39-3.69,7.25-2.8,2.31.72,3.11,4.8,6.55,2.97-2.21-5.73-5.35-7.14-13.44-5.91-.1,1.53-.19,3.14-.36,5.74ZM27.83,38.04c-.8.05-1.5.51-1.39,1.42.09.75.57,1.54,1.58,1.42.69-.09,1.12-.6,1.21-1.27.13-.94-.31-1.5-1.4-1.56h0Z"/>
  <path class="cls-2" d="M57.89,26.06c-1.46.04-2.92.08-4.38.13-1.56-6.27-3.13-12.54-4.69-18.81-.41-1.66-.79-3.21-3.07-3.18-5.09.07-10.19.02-15.74.02v21.81c-1.41.34-2.82.29-4.22-.05-.12-1.21.48-2.88-1.63-2.92-2.03-.04-1.73,1.53-1.77,2.82-1.27.16-2.55.31-3.82.47-.13-.82-.36-1.63-.37-2.45-.13-5.32-.11-5.31,5.44-5.59.49-.02.97-.19,1.68-.33,1.01-3.7.23-7.51.45-11.27.1-1.62-.68-2.38-2.31-2.6-1.57-.21-1.54-1.53-1.35-2.72.21-1.25,1.25-1.39,2.28-1.39,9.82,0,19.65,0,29.47.02,1.05,0,2.05.28,2.18,1.54.1.97.22,2.21-1.06,2.45-3.03.56-1.91,2.44-1.49,4.15,1.47,5.97,2.93,11.93,4.39,17.9h.01Z"/>
  <path class="cls-2" d="M103.94,69.14c-4.25-.02-7.2-3.28-7.06-7.82.13-4.19,3.19-7.23,7.25-7.17,4.34.06,7.83,3.64,7.74,7.95-.08,3.96-3.57,7.06-7.92,7.04h-.01ZM107.91,61.07c-.37-1.5-1.57-2.85-3.93-2.84-2.13,0-2.91,1.61-3.01,3.28-.15,2.59,2,3.41,3.96,3.49,1.75.07,3.05-1.16,2.99-3.94h0Z"/>
  <path class="cls-2" d="M33.77,69.17c-3.68.04-7.1-3.66-7.01-7.6.09-3.94,3.46-7.4,7.21-7.42,4.21-.02,7.79,3.33,7.86,7.36.08,4.34-3.35,7.6-8.07,7.66h0ZM37.86,61.77c-.74-1.83-1.51-3.63-3.97-3.55-2.15.07-3.38,1.55-3.55,3.39-.22,2.28,1.69,3.8,3.55,3.99,2.12.21,3.3-1.7,3.98-3.83h0Z"/>
  <path class="cls-2" d="M16.49,54.18c4.07.09,7.47,3.64,7.44,7.77-.03,4.07-3.65,7.41-7.86,7.23-3.77-.16-7.2-3.67-7.25-7.42-.05-3.9,3.76-7.66,7.67-7.58ZM16,58.15c-2.23.1-3.51,1.61-3.47,3.78.04,2.23,1.83,3.76,3.85,3.8,2.13.04,3.53-1.55,3.53-3.9s-1.38-3.56-3.91-3.67h0Z"/>
  <path class="cls-1" d="M51.89,38.79c.29-3.12,3-5.51,6.07-5.35,3.14.17,6.01,3.3,5.79,6.33-.24,3.22-3.25,5.8-6.48,5.56-3.25-.24-5.69-3.21-5.38-6.54ZM57.65,38.12c-.67.15-1.34.48-1.28,1.21.08.85.62,1.52,1.62,1.39.77-.1,1.03-.74.98-1.43-.05-.77-.64-1.06-1.32-1.17Z"/>
  <path class="cls-3" d="M27.83,38.04c1.09.07,1.53.63,1.4,1.56-.09.67-.52,1.19-1.21,1.27-1.01.13-1.49-.67-1.58-1.42-.11-.91.59-1.37,1.39-1.42h0Z"/>
  <path class="cls-3" d="M57.65,38.12c.69.12,1.27.4,1.32,1.17.05.69-.21,1.33-.98,1.43-.99.13-1.54-.54-1.62-1.39-.07-.74.6-1.06,1.28-1.22h0Z"/>
</svg>