<svg id="Layer_1" data-name="Layer 1" xmlns="http://www.w3.org/2000/svg" viewBox="0 0 32.7 39.86">
  <defs>
    <style>
      .cls-1 {
        fill: #585858;
      }

      .cls-1, .cls-2 {
        stroke-width: 0px;
      }

      .cls-2 {
        fill: #e40046;
      }
    </style>
  </defs>
  <path class="cls-1" d="M28.69,34.66c1.63-.6,1.18-1.87,1.2-2.92.04-3.5,0-6.99.03-10.49.02-2.72-.36-5.07-1.94-7.64-1.48-2.42-2.82-5.55-2.73-9.07,5.03,3.41,7.93,7.38,7.38,13.52-.42,4.58-.11,9.23-.14,13.85-.02,3.81-1.06,5.39-3.58,5.47-2.51.08-3.66-1.56-3.67-5.3-.02-4.24-.03-8.49-.02-12.73,0-1.22.3-2.59-1.86-2.81-.73,3.02-.26,6.09-.35,9.11-.09,2.97-.02,5.95-.02,9.19H2.43c-.6-.49-.49-1.14-.49-1.75,0-9.74.04-19.48-.07-29.22C1.85,1.16,2.83-.03,5.57,0c4.37.08,8.74-.05,13.11,0,3.67.05,4.24.66,4.31,4.46.05,2.98.01,5.96.01,8.86,4.59,1.68,4.69,1.82,4.7,6.48.01,3.87-.02,7.74.05,11.61.02,1.04-.47,2.28.94,3.22h0ZM20.24,5.32H4.59v10.66h15.65V5.32Z"/>
  <path class="cls-2" d="M0,38.68c3.35-2.28,21.89-2.26,24.56.03-2.5,1.55-22.15,1.53-24.56-.03Z"/>
</svg>