<?xml version="1.0" encoding="UTF-8"?>
<svg id="Layer_1" data-name="Layer 1" xmlns="http://www.w3.org/2000/svg" viewBox="0 0 121.6 52.84">
  <defs>
    <style>
      .cls-1 {
        fill: #e40046;
      }

      .cls-1, .cls-2 {
        stroke-width: 0px;
      }

      .cls-2 {
        fill: #575757;
      }
    </style>
  </defs>
  <path class="cls-2" d="M5.49,44.66C.12,45.01.09,45.01.02,39.88-.03,36.59.02,33.29.02,29.52h88.78V9.23c1.92-1.35,3.47-1.15,4.93-1.05,2.03.14,3.41-.16,4.08-2.52.69-2.4,2.68-2.35,3.31-.17.78,2.7,2.39,2.92,4.48,2.67,3.01-.36,5,.85,6.58,3.4,1.49,2.39,3.34,4.57,5.09,6.79,3.53,4.46,4.1,9.14,1.24,14.16-.82,1.43-.99,3.13.69,3.88,2.99,1.33,2.62,3.65,1.87,5.85-.92,2.67-3.27,2.97-6.06,2.6-1.39-5.57-4.58-9.81-10.78-9.78-5.94.02-9.28,3.85-10.56,9.95h-17.49c-9.33,0-18.66,0-28-.02-1.59,0-3.08.28-4.12-1.83-4.73-9.65-10.38-10.75-18.71-3.89-8.67-7.57-16.31-4.77-19.87,5.39h0ZM116.19,29.06c2.11-7.63-3.66-11.93-7.62-15.82-4.14-4.08-10.6-.91-16.3-1.59-.03,3.72-.44,6.8.37,9.9,5.61.46,10.8,1.79,14.94,5.4,2.51,2.19,5.02,2.96,8.61,2.11Z"/>
  <path class="cls-2" d="M75.67.75v26.54c-9.12.48-18.18.52-27.63-.43V.44c9-.81,18.06-.37,27.63.32h0Z"/>
  <path class="cls-2" d="M40.75,1v26.22c-9.27.53-18.43.63-27.89-.41,0-7.95-.01-15.58.01-23.2,0-1.66.56-3,2.55-2.95,8.38.22,16.81-1.4,25.32.34h0Z"/>
  <path class="cls-1" d="M23.95,45.39c.04,4.09-3.41,7.47-7.61,7.45-3.95-.02-7.54-3.62-7.54-7.56s3.72-7.61,7.67-7.53c4.23.08,7.43,3.36,7.48,7.64ZM15.36,41.78c-1.44.4-2.98,1.63-2.79,3.86.18,2.16,1.92,3.7,3.95,3.68,2.13-.03,3.43-1.71,3.38-4.02-.06-2.44-1.49-3.47-4.53-3.52h-.01Z"/>
  <path class="cls-1" d="M26.77,45.46c-.07-3.94,3.18-7.58,6.91-7.74,4.15-.18,8.26,3.64,8.21,7.64-.05,4.3-3.71,7.58-8.33,7.47-3.52-.08-6.73-3.56-6.79-7.36h0ZM37.83,45.44c-.64-1.85-1.45-3.66-3.89-3.57-2.37.08-3.56,1.7-3.58,3.84-.02,2.1,1.89,3.35,3.5,3.45,1.99.12,3.53-1.37,3.98-3.72h0Z"/>
  <path class="cls-1" d="M103.81,52.78c-4.04-.11-7.08-3.62-6.95-8.01.12-3.9,3.56-7.17,7.42-7.06,4.15.12,7.8,3.99,7.65,8.11-.14,3.86-3.88,7.06-8.13,6.95h0ZM107.95,45.15c-.36-2.11-1.73-3.36-4.01-3.27-2.39.09-3.57,1.7-3.46,3.92.11,2.28,1.73,3.69,3.93,3.53,2.16-.16,3.47-1.68,3.54-4.18Z"/>
</svg>