<?xml version="1.0" encoding="UTF-8"?>
<svg id="Layer_1" data-name="Layer 1" xmlns="http://www.w3.org/2000/svg" viewBox="0 0 796.86 490.5">
  <defs>
    <style>
      .cls-1 {
        fill: #bdc0c0;
      }

      .cls-1, .cls-2, .cls-3, .cls-4, .cls-5, .cls-6, .cls-7, .cls-8, .cls-9, .cls-10, .cls-11, .cls-12, .cls-13, .cls-14, .cls-15, .cls-16, .cls-17, .cls-18, .cls-19, .cls-20, .cls-21, .cls-22, .cls-23, .cls-24, .cls-25, .cls-26, .cls-27, .cls-28, .cls-29, .cls-30, .cls-31, .cls-32, .cls-33, .cls-34, .cls-35, .cls-36, .cls-37, .cls-38, .cls-39, .cls-40, .cls-41, .cls-42, .cls-43, .cls-44, .cls-45, .cls-46, .cls-47, .cls-48, .cls-49, .cls-50, .cls-51, .cls-52, .cls-53, .cls-54, .cls-55, .cls-56, .cls-57, .cls-58, .cls-59, .cls-60, .cls-61, .cls-62, .cls-63, .cls-64, .cls-65, .cls-66, .cls-67, .cls-68, .cls-69, .cls-70, .cls-71, .cls-72, .cls-73, .cls-74, .cls-75, .cls-76, .cls-77, .cls-78, .cls-79, .cls-80, .cls-81, .cls-82, .cls-83, .cls-84, .cls-85, .cls-86, .cls-87, .cls-88, .cls-89, .cls-90, .cls-91, .cls-92, .cls-93, .cls-94, .cls-95, .cls-96, .cls-97, .cls-98, .cls-99, .cls-100, .cls-101, .cls-102, .cls-103, .cls-104, .cls-105, .cls-106, .cls-107, .cls-108, .cls-109, .cls-110, .cls-111, .cls-112, .cls-113, .cls-114, .cls-115, .cls-116, .cls-117, .cls-118, .cls-119, .cls-120, .cls-121, .cls-122, .cls-123, .cls-124, .cls-125, .cls-126, .cls-127, .cls-128, .cls-129, .cls-130, .cls-131, .cls-132, .cls-133, .cls-134, .cls-135, .cls-136, .cls-137, .cls-138, .cls-139, .cls-140 {
        stroke-width: 0px;
      }

      .cls-2 {
        fill: #999;
      }

      .cls-3 {
        fill: #707070;
      }

      .cls-4 {
        fill: #b6b6b6;
      }

      .cls-5 {
        fill: #afb4b6;
      }

      .cls-6 {
        fill: #c3cacd;
      }

      .cls-7 {
        fill: #fdfefe;
      }

      .cls-8 {
        fill: #bec0bf;
      }

      .cls-9 {
        fill: #a4a6a6;
      }

      .cls-10 {
        fill: #1b1b1b;
      }

      .cls-11 {
        fill: #d5d5d4;
      }

      .cls-12 {
        fill: #c3c4c3;
      }

      .cls-13 {
        fill: #f3f3f3;
      }

      .cls-14 {
        fill: #cccfd1;
      }

      .cls-15 {
        fill: #bc3542;
      }

      .cls-16 {
        fill: #c9cbce;
      }

      .cls-17 {
        fill: #b2b7b8;
      }

      .cls-18 {
        fill: #eaaa1b;
      }

      .cls-19 {
        fill: #acb1b1;
      }

      .cls-20 {
        fill: #e1e1e1;
      }

      .cls-21 {
        fill: #ffd561;
      }

      .cls-22 {
        fill: #abadaf;
      }

      .cls-23 {
        fill: #c2c8cb;
      }

      .cls-24 {
        fill: #aaafb0;
      }

      .cls-25 {
        fill: #a7a8a8;
      }

      .cls-26 {
        fill: #c4c9ca;
      }

      .cls-27 {
        fill: #cdd0d1;
      }

      .cls-28 {
        fill: #e40046;
      }

      .cls-29 {
        fill: #c7cbce;
      }

      .cls-30 {
        fill: #1a1a1a;
      }

      .cls-31 {
        fill: #c2c2c2;
      }

      .cls-32 {
        fill: #a7a7a7;
      }

      .cls-33 {
        fill: #c4c4c4;
      }

      .cls-34 {
        fill: #c7c8c9;
      }

      .cls-35 {
        fill: #bebfbf;
      }

      .cls-36 {
        fill: #151515;
      }

      .cls-37 {
        fill: #393939;
      }

      .cls-38 {
        fill: #dfdfdf;
      }

      .cls-39 {
        fill: #909090;
      }

      .cls-40 {
        fill: #d4d6d6;
      }

      .cls-41 {
        fill: #c6c8c9;
      }

      .cls-42 {
        fill: #ccd0d1;
      }

      .cls-43 {
        fill: #f1fafe;
      }

      .cls-44 {
        fill: #343434;
      }

      .cls-45 {
        fill: #aeaeae;
      }

      .cls-46 {
        fill: #acaeb0;
      }

      .cls-47 {
        fill: #ddd;
      }

      .cls-48 {
        fill: #5a5a5a;
      }

      .cls-49 {
        fill: #c7c7c7;
      }

      .cls-50 {
        fill: #b3b3b3;
      }

      .cls-51 {
        fill: #d9dbda;
      }

      .cls-52 {
        fill: #2d2d2d;
      }

      .cls-53 {
        fill: #c7c9c9;
      }

      .cls-54 {
        fill: #b4b8b9;
      }

      .cls-55 {
        fill: #afb2b1;
      }

      .cls-56 {
        fill: #bfbfbf;
      }

      .cls-57 {
        fill: #737373;
      }

      .cls-58 {
        fill: #7b7b7b;
      }

      .cls-59 {
        fill: #e7e7e7;
      }

      .cls-60 {
        fill: #ccc;
      }

      .cls-61 {
        fill: #c5c7c9;
      }

      .cls-62 {
        fill: #bebebe;
      }

      .cls-63 {
        fill: #0d0d0d;
      }

      .cls-64 {
        fill: #8a8b89;
      }

      .cls-65 {
        fill: #a1a1a1;
      }

      .cls-66 {
        fill: #ababa9;
      }

      .cls-67 {
        fill: #bbbfc0;
      }

      .cls-68 {
        fill: #8d8d8d;
      }

      .cls-69 {
        fill: #787878;
      }

      .cls-70 {
        fill: #484848;
      }

      .cls-71 {
        fill: #cbcece;
      }

      .cls-72 {
        fill: #aab0ae;
      }

      .cls-73 {
        fill: #9d9d9d;
      }

      .cls-74 {
        fill: #fafafa;
      }

      .cls-75 {
        fill: #ffc400;
      }

      .cls-76 {
        fill: #e2e2e2;
      }

      .cls-77 {
        fill: #d3d3d3;
      }

      .cls-78 {
        fill: #b2b2b1;
      }

      .cls-79 {
        fill: #858585;
      }

      .cls-80 {
        fill: #c1c5c6;
      }

      .cls-81 {
        fill: #eee;
      }

      .cls-82 {
        fill: #c2cacb;
      }

      .cls-83 {
        fill: #cbcbcb;
      }

      .cls-84 {
        fill: #c7c9ca;
      }

      .cls-85 {
        fill: #b0b2b3;
      }

      .cls-86 {
        fill: #c7ccce;
      }

      .cls-87 {
        fill: #acb1ad;
      }

      .cls-88 {
        fill: #c3c3c3;
      }

      .cls-89 {
        fill: #1f1f1f;
      }

      .cls-90 {
        fill: #464646;
      }

      .cls-91 {
        fill: #d9d9d9;
      }

      .cls-92 {
        fill: #a5a5a5;
      }

      .cls-93 {
        fill: #a8a8a8;
      }

      .cls-94 {
        fill: #4f4f4f;
      }

      .cls-95 {
        fill: #a6a6a6;
      }

      .cls-96 {
        fill: #b1b3b3;
      }

      .cls-97 {
        fill: #353535;
      }

      .cls-98 {
        fill: #a4a8a9;
      }

      .cls-99 {
        fill: #bcc0c1;
      }

      .cls-100 {
        fill: #101010;
      }

      .cls-101 {
        fill: #c4cbcb;
      }

      .cls-102 {
        fill: silver;
      }

      .cls-103 {
        fill: #dbdbdb;
      }

      .cls-104 {
        fill: #404040;
      }

      .cls-105 {
        fill: #b0b2b4;
      }

      .cls-106 {
        fill: #c6c8ca;
      }

      .cls-107 {
        fill: #2a2a2a;
      }

      .cls-108 {
        fill: #313131;
      }

      .cls-109 {
        fill: #c5c5c5;
      }

      .cls-110 {
        fill: #d7d7d7;
      }

      .cls-111 {
        fill: #f9f9f9;
      }

      .cls-112 {
        fill: #a5a6a6;
      }

      .cls-113 {
        fill: #b8bcbd;
      }

      .cls-114 {
        fill: #e53844;
      }

      .cls-115 {
        fill: #fbfbfb;
      }

      .cls-116 {
        fill: #a3a6a6;
      }

      .cls-117 {
        fill: #cfcfcf;
      }

      .cls-118 {
        fill: #c9c9c9;
      }

      .cls-119 {
        fill: #1c1c1c;
      }

      .cls-120 {
        fill: #8b8b8b;
      }

      .cls-121 {
        fill: #fdfdfd;
      }

      .cls-122 {
        fill: #181818;
      }

      .cls-123 {
        fill: #b2b6b7;
      }

      .cls-124 {
        fill: #b1b4b5;
      }

      .cls-125 {
        fill: #a5a7a8;
      }

      .cls-126 {
        fill: #acb1af;
      }

      .cls-127 {
        fill: #a5a6a8;
      }

      .cls-128 {
        fill: #292929;
      }

      .cls-129 {
        fill: #afafaf;
      }

      .cls-130 {
        fill: #636363;
      }

      .cls-131 {
        fill: #ffe8b0;
      }

      .cls-132 {
        fill: #383838;
      }

      .cls-133 {
        fill: #cecece;
      }

      .cls-134 {
        fill: #e1e3e4;
      }

      .cls-135 {
        fill: #303030;
      }

      .cls-136 {
        fill: #c1c2c2;
      }

      .cls-137 {
        fill: #d8d8d8;
      }

      .cls-138 {
        fill: #757575;
      }

      .cls-139 {
        fill: #efefef;
      }

      .cls-140 {
        fill: #bfc0c1;
      }
    </style>
  </defs>
  <path class="cls-96" d="M680.73,231.82c-19.79-2-39.59-3.92-59.37-6.04-4.27-.46-5.62.67-5.75,5.23-.77,25.9-1.89,51.79-2.98,77.69-.62,14.59-1.4,29.18-2.11,43.76-3.17-.15-4.21-2.13-4.28-4.96-.88-34.96-1.37-69.91-1.06-104.87.01-1.5-.01-3-.03-4.5-.02-3.13-1.39-3.68-4.13-2.45-6.84,3.06-13.58,6.34-20.4,9.46-7.12,3.26-14.04,6.92-21.25,9.99-3.46,1.47-5.35,3.73-5.03,7.65,1.37,16.93.45,33.93,1.75,50.87.65,8.47.28,16.98.14,25.47-.03,1.63-.15,3.37-1.96,4.48-2.35-1.5-1.96-3.99-2.04-6.19-.78-22.45-2.14-44.86-3.91-67.25-.35-4.47.24-8.97-.57-13.44-.43-2.37.68-4.22,3.2-4.91,4.94-1.68,9.43-4.26,13.92-6.86,2.14-3.69,6.41-4,9.68-5.73,11.71-6.23,23.36-12.65,35.68-17.69,1.63-.23,3.27-.22,4.92-.25,5.7-.31,11.3.6,16.92,1.26,3.84,1.34,7.88.48,11.8.99,1.93.25,2.71-.7,2.61-2.6-.1-1.83-.03-3.66,1.43-5.06,12.83,1.42,25.66,2.81,38.49,4.27,6.26.71,12.48,1.79,18.75,2.27,3.46.27,4.86,1.65,4.46,4.95-.4,3.23.95,4.27,4.18,4.45,3.6.2,7.16,1.27,10.84.76.4-.27.84-.76,1.24-.71,4.6.57,7.21-1.07,6.96-6.05,13.98,1.77,27.88,3.97,41.72,6.62.94.18,2.57.54,2.63.98.79,6.2,5.81,4.87,9.49,5.13,10.37.73,10.43.56,10.13,10.84-.68,22.93-.95,45.88-2.29,68.78-.94,16.07-.21,32.21-2.37,48.22,0-7.4-.04-14.81.02-22.21.02-1.98.46-3.95.49-5.93.43-24.28.68-48.57,1.31-72.85.15-5.63.36-11.3.8-16.91.35-4.48-1.19-6.12-5.55-6.47-11.41-.92-22.79-2.16-34.17-3.29-15.84-1.57-31.67-3.22-47.51-4.72-8.91-.84-17.85-1.44-26.78-2.16Z"/>
  <path class="cls-35" d="M560.78,143.66c-1.54-12.61-2.38-25.29-3.64-37.92-.84-8.36-2.29-16.69-2.41-25.14-.05-3.62-.58-7.23-.87-10.85-.22-2.74,1.07-4.2,3.71-5.06,13.06-4.28,26.11-8.6,39.08-13.14,3.74-1.31,7.9-2.14,11.09-4.14,6.71-4.2,11.82-2.47,16.85,2.39,7.44,8.33,16.82,14.43,25.17,21.72,4.66,4.07,7.34,7.35,6.41,14.42-2.02,15.41-2.41,31.03-3.43,46.57-1.26,19.17-3.45,38.28-4.11,57.5-.02.57-.58,1.12-.89,1.67-.2-.21-.4-.41-.6-.61-1.14-2.18-.85-4.55-.87-6.86-.2-27.95,1.99-55.84,2.1-83.78.02-4.14.98-8.24.93-12.43-.04-3.23-1.04-5.74-3.57-7.82-8.1-6.65-16.33-13.15-24.18-20.1-2.82-2.49-5.88-2.73-9.3-1.58-15.62,5.25-31.42,9.92-47.16,14.8-4.16,1.29-5.6,3.2-5.24,7.89,1.07,13.74,1.67,27.53,2.35,41.31.17,2.77-.33,5.59.6,8.31.31,1.77.26,3.46-.98,4.92v5.01c.49,1.27,1.42,2.7-1.04,2.93Z"/>
  <path class="cls-114" d="M614.78,384.68c2.03-1.48,4.45-1.01,6.71-1.34,3.58-.53,5.67-2.25,5.41-6.23-.21-3.26-.47-6.61,1.81-9.43,1.95,1.89,1.28,4.36,1.37,6.61.1,2.3.76,3.83,3.35,4.04,6.84.53,11.56,4.58,15.77,9.52,3.69,4.33,7.5,4.22,11.08-.27,1.14-1.44,2.08-3.04,4.01-3.55,1.46-.42,3.04.58,4.46-.39.58-.37,1.16-.73,1.74-1.1,2.53-.61,4.48-.22,6.76,1.61,2.52,2.02,6.26,1.26,9.48,1.39,1.98.08,3.97-.16,5.95.25,3.26.69,6.53,1.47,8.54-2.42.16-.31.92-.07,1.31.29,3.06,5.43,10.46,5.51,13.54,10.97.71,1.26,1.6.21,2.51-.1,2.17-.75,4.43-1.76,6.63-1.71,2.94.06,6.68-.41,7.6,3.83,1.13,5.2-.55,7.79-5.84,9.42-1.55-5.3-2.64-6.03-8.1-5.3-1.81.24-3.6.67-5.4,1-3.42.63-6.49.57-9.05-2.47-1.61-1.91-4.25-2.54-6.44-3.7-2.59-1.38-4.89-.99-6.64,1.32-1.93,2.54-4.19,3.54-7.36,2.65-1.47-.41-2.91.45-4.32.95-1.74.61-3.53,1.29-5.34.54-2.75-1.15-4.98.17-7.56.83-5.23,1.33-10.58,2.51-16.04,2.77-2.04.1-3.58-.69-4.56-2.44-1.49-2.66-3.48-2.66-5.88-1.35-2.63,1.44-4.69,1.65-7.57-.62-3.39-2.67-8.35-2.48-12.51-3.97-1.44-.52-2.82.75-3.77,1.99-1.86,2.41-4.18,3.14-7.05,2.1-.48-.25-.78-.63-.92-1.15.03-1.34.95-2.46.84-3.84-.35-4.68,1.31-8.33,5.48-10.7Z"/>
  <path class="cls-28" d="M665.7,384.66c-2.09.15-3.36,1.48-4.03,3.25-1,2.65-2.87,3.64-5.55,4.21-3.14.67-5.05.69-7.35-2.5-4.05-5.62-9.25-10.39-17.12-9.96-2.13.12-2.96-.95-2.92-3.01.06-2.98,0-5.97-.02-8.96,3.68-12.76,16.76-17.99,27.84-11.24,4.86,2.96,9.04,6.57,12.3,11.23.73,3.71,2.12,7.44-.24,11.08-.99,1.96-1.13,4.34-2.91,5.91Z"/>
  <path class="cls-15" d="M608.8,399.7c3.02.09,5.72.2,7.37-3.43,1.24-2.72,4.84-2.31,6.65-1.17,2.65,1.67,5.08,2.56,8.12,2.2.6-.07,1.63.16,1.84.57,2.91,5.67,6.35,1.95,9.5.48,2.34-1.09,3.48-.13,4.19,1.84,1.66,4.61,5.4,4.3,8.53,2.8,2.28-1.09,4.35-1.28,6.62-1.3,2.16-.02,4.34.24,5.92-1.76.29-.36.88-.77,1.27-.71,5.57.81,10.98-.69,16.43-.86,2.22-.07,3.33.07,4.57-1.74,2.15-3.16,4.55-5.08,8.61-2.3,2.91,1.99,6.5,2.64,8.89,5.87,1.46,1.98,4.59.36,6.95.13,2.9-.29,5.59-1.51,8.7-1.15,4.8.55,6.04,2.65,4.03,6.9-2.84,1.42-5.9.76-8.84.74-35.47-.29-70.94-.68-106.41-1.05-.99-.01-1.98-.19-2.97-.29-2.18-1.94-2.38-3.86.05-5.75Z"/>
  <path class="cls-15" d="M612.89,359.3c4.23,6.56.86,13.05-.39,19.48-.31,1.56-1.03,3.07-.92,4.75-.12,3.5-1.36,6.55-3.67,9.18-.29.35-.6.67-.93.99-2.15,2.67-5.27,3.25-8.37,3.89-2.14.25-4.29.64-6.44.71-3.53.11-3.78,1.88-2.57,4.56-.46.98,0,2.43-1.57,2.93-1.89-2.22,1.04-5.64-1.3-7.3-2.08-1.48-5.19-.61-7.6-1.95-3.33-1.86-6.47-2.53-9.7.58-1.19,1.14-3.32,1.67-5.07,1.78-2.94.18-4.26,1.2-3.74,4.27.22,1.35.05,2.8-1.93,2.68-2.04-.12-1.83-1.72-1.59-2.95.67-3.43-1.29-4.12-4.07-4.7-4.91-1.02-9.36-3.15-12.99-6.74-1.27-1.06-2.52-2.13-1.36-4.02,3.66-1.16,6.41,1.09,9.18,2.74,4.16,2.48,8.35,2.92,12.92,1.5,2.91-.91,5.53-1.41,5.45-5.66-.05-2.98,3.13-3.91,6.61-1.87,5.19,3.04,10.56,4.45,16.61,4.19,11.66-.5,21.7-10.43,21.93-22.02.05-2.4-.7-5.05,1.49-7.03Z"/>
  <path class="cls-17" d="M762.86,325.16c0-24.96,0-49.92,0-74.87,0-1.16-.05-2.33.03-3.49.08-1.14.06-2.53,1.79-2.33,1.28.15,2.1.93,2.11,2.33.01,1.16.05,2.33.05,3.49-.07,43.76-.12,87.52-.26,131.28-.02,6.97-.41,13.94-.74,20.91-.07,1.43.88,3.94-1.67,3.81-1.97-.1-1.27-2.39-1.27-3.75-.04-20.3-.03-40.6-.03-60.9,0-5.49,0-10.98,0-16.47Z"/>
  <path class="cls-124" d="M678.97,379.57c-1.75-19.72-.68-39.51-1.44-59.25-.82-21.43-.64-42.85-.98-64.28-.07-4.64-.31-9.29-.76-13.9-.38-3.9,1.18-5.19,4.84-4.39.05,46.12.1,92.25.14,138.37,0,1.42.44,3.16-1.8,3.45Z"/>
  <path class="cls-5" d="M736.79,397.93c-4.95-8.14-3.43-15.89-3.72-23.12-.72-18.13.09-36.32-.59-54.46-.88-23.31-.55-46.61-.89-69.91-.02-1.62,0-3.24,0-5.17,2.15,1.27,2.2,2.94,2.24,4.6.29,9.97.68,19.95.84,29.92.45,27.96.49,55.94,1.35,83.89.34,10.97.45,21.93.76,34.25Z"/>
  <path class="cls-40" d="M632.7,223.8c2.51.02,4.47-.2,5.99-3.03,1.03-1.91,3.96-2.8,6.05-4.14,1.05-.26,2.1-.52,3.15-.77-.1,3.06.95,7.13-.61,8.92-1.77,2.03-5.75-.56-8.88-.15-1.86.24-3.98.63-5.7-.82Z"/>
  <path class="cls-11" d="M732.81,225.8q1.81,7.32-5.73,6.91c-.82-.04-1.65-.1-2.47-.15-.27-5.89,4.5-5.69,8.2-6.76Z"/>
  <path class="cls-26" d="M693.48,255.41c-6.77,3.53-1.74,10.61-5.42,15.18-.85-4.34.04-8.73-.96-13.03-.57-2.45,1.18-3.04,6.38-2.15Z"/>
  <path class="cls-23" d="M711.04,303.25c-.63-4.95-.39-9.07-1.04-13.18-.97-6.05,3.27-3.33,6.34-3.15-5.79,4.14-3.42,10.46-5.29,16.33Z"/>
  <path class="cls-86" d="M692.26,363.6c-7.91,1.23-2.68,8.17-5.65,12.03-1.57-4.37-1.57-8.61-.57-12.19.85-3.03,3.95-.08,6.21.17Z"/>
  <path class="cls-6" d="M711.06,330.92c-.71-4.69-.26-9.12-1.12-13.48-.59-3,1.42-3.51,5.87-1.65-5.74,3.59-2.53,10-4.75,15.13Z"/>
  <path class="cls-101" d="M777.68,304.36c0-4.28.17-7.22-.04-10.12-.27-3.63.84-5.43,5.17-4.21-6.07,2.86-.98,9.25-5.12,14.33Z"/>
  <path class="cls-82" d="M778.51,264.06c-1.23-4.69-.89-8.46-.73-12.14.16-3.76,3.18-1.44,4.81-2.17-5.57,3.36-1.25,9.2-4.08,14.31Z"/>
  <path class="cls-35" d="M646.84,207.64c-.06-3.31-.11-6.63-.17-9.94-.73-.9-1.16-1.91-1.13-3.09.27-1.32.12-2.97,2.22-2.9,0,0-.03-.03-.03-.03-.2,5.32.7,10.71-.88,15.96Z"/>
  <path class="cls-112" d="M155.78,163.75c6.49,2.46,13.13,4.42,19.92,5.84,1.4-.66,2.81-.24,4.23-.09,17.64,4.95,35.19,10.18,52.85,15.07,3.81,1.05,5.64,3.1,5.56,7.05-.29,14.8-.98,29.59-1.61,44.38-.5,11.63-1.08,23.28-1.21,34.91-.12,10.66-1.09,21.27-1.23,31.92-.02,1.79-.13,3.65-2.02,4.92-2.51-2.35-1.93-5.3-1.94-8-.05-30.65-.03-61.29-.03-91.94,0-8.53.01-8.62-8.35-10.71-22.62-5.66-45.23-11.38-67.84-17.05-3.77-.95-6.74-.44-9.59,2.25-11.84,11.22-23.83,22.29-35.45,33.74-1.89,1.86-2,4.1-1.76,6.48,1.76,17.22,2.88,34.49,4.56,51.72,1.99,20.37,3.59,40.77,5.52,61.15.74,7.78,1.54,15.56,1.91,23.37.58,5.88.92,11.78,1.62,17.65.29,2.47,1.77,5.63-1.96,7.14-1.86-14.96-3.7-29.93-5.6-44.89-2.15-16.93-4.33-33.85-6.53-50.78-2.44-18.73-4.93-37.46-7.41-56.18-.81-6.07-1.59-12.15-2.51-18.21-.42-2.78,1.34-4.19,3.03-5.82,8.95-8.63,17.85-17.31,26.77-25.97,7.64-7.46,15.87-14.33,23.11-22.71,1.14,1.93,1.48,5.12,4.94,4.64.42-.53.76-.48,1.04.13Z"/>
  <path class="cls-114" d="M110.96,378.58c1.88,1.25-.36,4.53,2.58,5.26,2.06.37,2.84,2.32,4.3,3.44,6.68,1.47,9.2,6.61,10.98,12.41.65.53,1.05,1.16.83,2.05-.54,3.22-2.1,2.89-4.03,1.14-5.14-4.68-6.47-5.12-11.97-2.21-9.6,5.1-19.74,4.39-29.94,3.21-2.15-.25-4.2-.78-6.37-.07-5.12,1.69-9.47-.24-13.29-3.4-4.52-3.74-6.11-4.3-10.15-.22-4.68,4.73-10.15,4.11-15.59,3.4-3.11-.4-5.53-.33-7.54,2.18-4.11.38-7.44-.78-7.82-5.37-.26-3.16,5.46-6.68,9.74-5.53,8.21,2.21,13.1-2.67,17.79-7.72,3.15-3.4,6.49-4.21,10.66-2.84,2.96-.44,4.41,3.1,7.32,2.78,2.23-1.17,4.37-1.71,6.76-.14,1.17.76,2.72.94,3.99-.22,4.24,1.01,7.3,4.27,11.21,5.96,2.61,1.12,3.66.99,4.46-2.02,1.75-6.6,4.62-9.03,11.1-9.07,2.66-.02,3.73-1.3,4.95-3Z"/>
  <path class="cls-28" d="M110.96,378.58c.21,3-.31,4.54-4.19,4.23-6.77-.53-10.1,2.52-10.83,9.41-.41,3.88-1.78,4.18-4.73,2.34-4.05-2.53-8.77-4.02-11.98-7.84-6.24-6.89-1.91-19.42,8.74-23.34,3.62-4.02,7.24-2.01,10.86,0,.68.21,1.37.41,2.05.62,1.9.48,2.57,2.32,3.85,3.48,2.63,3.39,5.76,6.49,6.23,11.1Z"/>
  <path class="cls-116" d="M94.76,318.76c-6.5-3.59-13.07-7.07-19.49-10.81-2.93-1.71-5.56-2.09-8.9-.96-18.27,6.17-36.56,12.29-54.99,17.97-5.38,1.66-5.46,4.89-5.3,9.31.71,18.95,1.2,37.91,1.75,56.86.01.47-.19.96-.45,2.16-1.56-14.05-3.05-27.38-4.52-40.7-.84-7.59-1.35-15.23-2.58-22.76-.79-4.85-.2-7.26,5.3-8.76,20.36-5.54,40.54-11.75,60.76-17.78,2.17-.65,4.15-1.01,6.21.28,7.6,4.75,15.24,9.44,22.86,14.16l-.65,1.03Z"/>
  <path class="cls-15" d="M30.78,405.76c.62-4.09,3.11-4.64,7.84-3.79,4.45.8,9.22,1.99,13.48-2.22,5.98-5.91,7.36-5.2,13.53.08,2.84,2.43,6.79,5.07,11.3,2.46,1.69-.98,3.58-.83,5.34-.3,6.59,2,13.07.82,19.72.62,6.39-.19,10.42-4.23,15.95-5.05,3.1-.46,5.64-.71,7.4,2.67.69,1.32,1.53,5.03,4.31,1.49.4,3.43.19,3.75-3.73,3.8-10.14.13-20.29.12-30.43.24-19.29.21-38.57.5-57.86.68-2.28.02-4.66.48-6.86-.67Z"/>
  <path class="cls-67" d="M19.25,356.86c-2.14-.06-3.75,1.46-4.18-.84-.32-1.72.55-2.8,2.31-3.25,13.96-3.56,27.91-7.16,41.87-10.75,1.52-.39,3.18-.83,3.45,1.39.29,2.35.39,4.67-2.97,5.26-6.04,1.06-12.03,2.37-18.04,3.59-7.8,1.59-15.6,3.19-22.44,4.59Z"/>
  <path class="cls-127" d="M98.84,363.38c-3.62-.66-7.24-2.71-10.86,0,3.6-4.27,1.89-9.59,2.57-14.37,1.03-7.19.78-14.56,1.37-21.82.15-1.78-1.47-5.4,1.66-5.08,2.44.25,5.62,2.45,5.31,6.2-.41,5.11-.96,10.22-1.52,15.32-.43,3.95-.9,7.9-1.48,11.83-.48,3.23-.09,6.04,2.95,7.91Z"/>
  <path class="cls-67" d="M18.13,346.56c-1.16.06-2.67.45-3.04-1.42-.41-2.05,1.15-2.51,2.63-2.89,10.87-2.84,21.74-5.66,32.62-8.48,2.08-.54,4.15-1.15,6.27-1.48,1.79-.28,4.22-2.45,5.27.65,1.18,3.5-.99,5.03-4.25,5.64-8.77,1.65-17.52,3.39-26.27,5.14-4.37.88-8.72,1.87-13.23,2.84Z"/>
  <path class="cls-99" d="M61.91,323.83c.31,2.62-.68,3.46-3.24,3.94-13.18,2.47-26.31,5.26-39.45,7.95-1.55.32-3.43,1.51-4.04-1.04-.52-2.21,1.2-2.72,2.93-3.16,11.52-2.93,23.03-5.89,34.54-8.87,1.93-.5,3.83-1.12,5.75-1.64,2.56-.69,3.91.14,3.51,2.81Z"/>
  <path class="cls-1" d="M61.92,355.45c.42,2.6-1.1,3.61-3.31,4.06-13.32,2.68-26.63,5.39-39.95,8.02-1.2.24-2.88.8-3.4-.99-.55-1.9.84-2.58,2.44-3,13.79-3.61,27.58-7.22,41.35-10.88,2.7-.72,3.22.55,2.87,2.8Z"/>
  <path class="cls-72" d="M68.48,387.09c-3.22,1.11-5.03-1.49-7.33-2.79,2.92-.67,2.49-3.02,2.63-5.13,1.1-16.82,2.22-33.64,3.66-50.45.31,6.74.36,13.45-.08,20.21-.72,11.24-.9,22.51-1.4,33.77-.09,2.13.71,3.48,2.51,4.39Z"/>
  <path class="cls-87" d="M104.74,367.48c-1.9-.48-3.01-1.83-3.85-3.49,1.94-1.98,1.73-4.52,1.91-7,.67-9.09,1.41-18.18,2.13-27.26.08-.99.11-2.38,1.28-2.34,1.55.05,1.45,1.47,1.3,2.68-1.11,9.04-2.17,18.08-3.32,27.11-.44,3.48-.72,6.92.54,10.3Z"/>
  <path class="cls-15" d="M130.75,394.9c-.03-.4-.05-.8-.08-1.21,3.45-2.29,6.18-1.65,8.14,2.04-.09,3.27-.18,6.53-.28,9.8-1.36-.06-2.81.02-3.12-1.83-1.52-2.37.13-5.8-2.57-7.78-.7-.34-1.39-.68-2.09-1.02Z"/>
  <path class="cls-7" d="M132.83,395.92c1.93-.34,3.27.07,3.07,2.42-.16,1.79-.33,3.57-.5,5.36-.84-.27-2.43,1.43-2.46-.94-.04-2.28-.07-4.56-.11-6.84Z"/>
  <path class="cls-92" d="M279.77,379.29c1.81-3.12.94-6.53.86-9.78-.52-20.1-1.33-40.2-1.8-60.31-.83-35.08-1.47-70.16-2.23-105.24-.62-28.76-1.3-57.52-1.94-86.27-.62-27.93-1.23-55.86-1.86-83.78-.13-5.82-1.76-7.15-7.4-5.85-5.84,1.34-11.48,3.35-17,5.68-2.17.92-3.88,1.2-3.78-2.02-.47-7.96-.48-15.93,0-23.89,1.59-4.1,5.71-4.01,8.82-4.49,17.27-2.7,34.66-4,52.18-2.95,8.46.51,16.94.67,25.3,2.32,8.63,1.7,9.03,2.06,9.01,10.54-.02,6,.1,12-.05,18-.07,2.81.85,4.11,3.74,4.75,5.85,1.3,11.43,3.48,16.84,6.1,4.17,2.02,6.03,5.04,6.34,9.79,1.18,17.97.96,35.95,1.19,53.94.2,15.82.87,31.65.48,47.45-.98,40.31-.01,80.64-1.03,120.94-.59,23.49-.08,46.98-.97,70.45-.62,16.32-.45,32.64-.71,48.95-3.25,1.95-6.49,2.88-9.67-.16-.9-2.15-.72-4.27.1-6.39,1.29-2.5.89-5.22.88-7.85-.1-38.14.68-76.28,1.36-114.4.61-34.65-.35-69.3.88-103.91.71-19.82.41-39.63.83-59.44.27-12.67-1.63-25.27-1.08-37.94.2-4.56-2.36-7.54-5.83-9.81-7.64-4.98-16.13-7.87-24.99-9.76-3.38-.72-5.04.77-5.48,4.01-.23,1.66-.24,3.32-.29,4.99-1.32,46.63-.17,93.28-1.21,139.9-1.21,54.14-.28,108.27-.83,162.4-.03,2.55.52,7.01-1.92,6.93-3.34-.11-2.35-4.47-2.31-7.05.58-36.31-.99-72.61-1.35-108.91-.21-21.64-.11-43.3-.85-64.93-1.06-31.29-1.43-62.58-2.12-93.87-.3-13.45-.16-26.96-1.33-40.41-.44-5.04-3.02-7.31-7.57-8.45-5.43-1.36-10.9-1.13-16.4-.99-3.04.08-4.08,1.9-4.01,4.57.21,7.51-1.26,14.93-1.13,22.44,1.13,66.62.39,133.26,1.32,199.88.49,35.14.21,70.28.65,105.42.04,3.39.79,6.56,1.55,9.79-1.84,1.42-3.6,1.68-5.21-.35Z"/>
  <path class="cls-28" d="M165.65,363.49c3.41.73,5.71.01,7.68-3.47,1.72-3.05,4.72-5.54,7.55-7.77,7.79-6.14,18.17-5.22,25.19,1.94,1.04,1.07,2.01,2.21,3.01,3.31,1.91.83,2.59,2.71,3.62,4.28.07,1.27.13,2.54.2,3.81.91,2.92.5,5.69-.99,8.33-.24,1.81.11,3.65-.3,5.45-.93,2.06-2.47,3.85-4.62,4.06-5.43.53-9.36,3.63-13.28,6.9-2.48,4.03-2.17,5.54,1.4,6.86,1.53-.23,2.76-1.05,3.91-2.01,2.98-2.51,6-3.37,9.29-.49,1.17,1.02,2.6,1.38,4.16,1.15.65-.09,1.45-.42,1.95-.14,4.31,2.4,8.5,3.49,13.4,1.13,1.61-.78,3.78.89,3.45,3.56-2.02,2.39-5.07,3.34-7.4,5.29-10.94-.02-21.88.04-32.81-.1-4.55-.06-5.42-1.86-3.18-5.87,1.44-2.59,1.42-5.42.55-8.05-.47-1.41-2.36-.65-3.62-.65-2.07,0-2.57,1.94-3.48,3.2-2.38,3.31-5.42,5.4-9.52,5.4-3.16,0-5.63.23-4.74,4.46.26,1.24-.72,1.69-1.88,1.62-1.97-3.07-3.6-6.44-7.28-7.94-5.85-5.57-12.21-6.25-19.1-2.03-2.47-1.63-5.13-2.55-8.14-2.04-3.05-.41-3.62-3.64-5.79-5.06-1.17-4.47-2.33-8.95-3.51-13.42-1.94-7.38.66-13.96,3.57-20.49,2.69-3.12,5.31-6.3,8.72-8.68,5.43-3.79,9.97-3.24,14.29,1.99,3.76,4.56,5.22,10.2,6.84,15.73.31,1.05.15,2.6,2.01,1.48,2.33-3.67,5.55-2.92,8.84-1.75Z"/>
  <path class="cls-28" d="M572.86,341.77c12.02-8.79,21.87-3.34,31.85,5.1.75.63,1.44,1.33,2.16,1.99,1.21,1.2,2.43,2.4,3.64,3.59-.12,2.59,2.62,4.2,2.37,6.84-.59,5.83.88,11.88-2.07,17.47-.49.94-.19,2.27-1.36,3-7.45,4.64-13.92,11.03-24.04,10.12-5.13-.46-9.19-2.54-13.41-4.73-1.38-.71-2.43-1.68-4.02-.56-1.82,1.28-.97,2.46-.1,3.79,1.23,1.88.11,2.67-1.57,3.2-7.18,2.24-14.2,4.46-21.04-1.37-1.67-1.42-4.3-2.49-6.91-2.51-3.03-2.23-4.05-8.85-1.88-13.2.65-1.31,1.37-2.63,2.23-3.84.74-1.34,1.48-2.68,2.22-4.02.36-.49.94-.69,1.41-1.03,4.63-4.43,10.03-7.26,16.48-5.63,3.8.96,4.55-.99,5.45-3.59.79-2.27.51-4.93,2.46-6.78,1.06-3.38,2.95-6.11,6.11-7.87Z"/>
  <path class="cls-95" d="M380.92,286.62c-.75-21.77-1.51-43.54-2.24-65.32-1.04-31.09-2.01-62.18-3.08-93.26-.45-13.13-1.05-26.25-1.69-39.37-.16-3.26.78-4.49,4.31-5,28.25-4.07,56.47-8.4,84.68-12.76,3.71-.57,5.02.3,4.87,4.27-1.09,30.41-2.04,60.83-2.95,91.24-.78,26.1-1.43,52.21-2.19,78.31-.63,21.62-1.3,43.23-2.01,64.85-.61,18.62-1.3,37.24-1.95,55.86-.28.38-.55.4-.81-.01.05-30.32-.3-60.64.22-90.95,1.11-64.27.38-128.54.94-192.81.04-4.21-1.03-4.84-5.1-4.23-23.97,3.57-47.98,6.89-72.01,10.04-3.18.42-4.2,1.27-4.13,4.48.83,35.78,1.33,71.58,2.4,107.35.32,10.65.4,21.3.66,31.95.44,18.47,1.39,36.94.97,55.42-.34.46-.63.46-.89-.07Z"/>
  <path class="cls-114" d="M356.95,393.64c2.95.94,5.88-.05,8.82-.05,4.8.99,7.72-.31,7.12-5.88,4.28-7.39,11.21-7.62,18.51-6.88,3.7,2.05,6.88,4.91,10.84,6.63,2.43,1.06,3.41,3.88,4.84,6.07.4.61-.34,2.98,1.75,1.24-.11,2.29-.23,4.59-.34,6.88-2.55,1.64-4.48.24-6.11-1.48-3.09-3.27-6.45-3.91-10.16-1.29-3.48,2.46-7.53,2.26-11.33,3.19-7.35,1.8-14.45.2-21.6.97-5.55.6-10.85-.76-16.15-2.14-1.71-.44-3.04-1.28-4.04-2.68-2.51-3.49-5.39-3.18-8.61-1.02-3.52,2.36-6.45,5.69-10.77,6.78.2.53.91.27,1.14.75-7.77,3.4-15.86,2.35-23.92,1.69.8-2.66,3.12-1.94,4.92-2.07,3.32-.24,6.66.14,9.98-.24.64-.07,1.4-.23,1.58-.99.24-1.03-.5-1.52-1.33-1.75-2.91-.83-5.77-1.37-8.8-.23-4.03,1.52-7.74,1.15-11.05-2.08-2.17-2.12-5.23-2.88-7.96-4.09-2.9-1.29-5.24-.1-6.89,2.36-1.52,2.27-3.31,3.08-5.93,1.98-1.64-.68-3.27-.18-4.85.46-1.24.5-2.54,1.12-3.86.9-4.06-.7-7.9-.45-11.54,1.74-1,.6-2.27.36-3.4-.11-2.09-1.96-4.28-3.62-7.42-3.46-1.13.06-2.42-.32-2.85-1.62-.55-1.64.78-2.4,1.82-3.18,1.68-1.26,3.96-1.95,4.15-4.56,5.34-8.85,13.27-10.51,22.61-8.02,1.52.41,2.9.51,4.3-.26,2.62-1.14,5.57.92,8.18-.88.47-.32,1.3.18,1.49.92.23.89-.17,1.57-.88,2.13-1.38,1.1-3.09.63-4.94,1.01,2.36.55,4.43,1.15,6.51,1.34,2.43.23,6.14,1.94,5.04-3.49-.26-1.29,1.53-1.37,2.73-1.22.7.2,1.33.54,1.93.94,2.87,4.2,8.29,5.14,11.49,8.93,5.94,3.8,9.3,3.76,14.04-.19,2.42-2.22,5.75-2.37,8.54-3.74,1.53-.51,3.08-.91,4.55-1.62,1.29-.62,2.59-1.32,4.14-1.13-.98-.79-3.18-.56-2.4-2.83,1.05-.81,2.23-.82,3.45-.56,3.78,4.42,7.8,7.35,13.75,3.28.98-.67,2.86.27,4.26.77.44.19.83.44,1.2.74,3.24,1.79,1.16,5.84,3.42,8.05Z"/>
  <path class="cls-92" d="M542.36,365.63c0,.98-.75.96-1.41,1.04,0-17.64.08-35.29-.07-52.93-.02-2.38,1.61-5.4-1.59-7.14-.44-.24-.62-.31-.26-.56,5.14-3.56,2.34-8.85,2.41-13.19.45-26.13-.06-52.29.64-78.41.87-32.62.33-65.24.94-97.86.07-3.96-1.31-5.86-4.67-7.64-19.39-10.25-38.65-20.73-57.6-31.9,16.35,7.22,32.7,14.45,49.06,21.67,3.53,0,6,2.44,8.91,3.88,3.55,1.7,7.05,3.53,10.68,5.04,2.46,1.02,3.55,2.42,3.42,5.2-.25,4.94-.13,9.9-.17,14.85-.61,2.62-.12,5.35-.72,7.97-.24,10.68-1.73,21.31-1.2,32.02-1.3,5.28.23,10.7-.85,15.99-.07,2.96-.13,5.93-.2,8.89-1.12,3.3.16,6.78-.77,10.1-.08,4.3-.15,8.61-.23,12.91-1.12,3.3.15,6.77-.76,10.08-.34,7.02-.67,14.04-1.01,21.06-.76,18.6-1.45,37.2-2.29,55.8-.85,18.75-1.87,37.49-2.77,56.24-.11,2.31-.42,4.66.5,6.9Z"/>
  <path class="cls-112" d="M244.87,39.9c6.65-3.06,13.63-5.2,20.54-7.54,2.94-.99,3.46.08,3.44,2.67-.07,8.15-.03,16.31-.76,24.57-1.11-5.72-2.16-11.45-3.37-17.15-.42-1.97-.47-4.81-3.94-3.18-16.27,7.67-29.64,18.22-33.47,36.91-1.62,7.92-1.94,16.16-2.27,24.28-.95,23.79-1.46,47.59-1.33,71.4,0,1.77,1.41,4.72-2.4,4.79-3.34.06-3.48-2.14-3.58-4.7-.98-24.42-1.92-48.85-3.13-73.26-.49-9.96-1.6-19.88.3-29.8,3.49-10.71,11.09-17.88,20.3-23.7,1.64-1.03,3.15-2.27,4.72-3.42,1.75-.35,3.49-.75,4.96-1.87Z"/>
  <path class="cls-28" d="M408.84,394.76c-1.43,1.63-1.35,1.58-2.1.45-2.48-3.72-4.42-7.85-9.71-8.76-2.29-.4-3.66-3.01-5.28-4.79-1.22-1.97.48-3.39.93-5.05,2.66-5.33,6.6-8.75,12.93-7.99,2.93.35,3.66-.95,4.13-3.5,1.17-6.43,3.44-12.43,8.14-17.23,3.93-4.01,7.76-4.08,9.99.83,6.29,13.86,8.86,28.09,1.27,42.47-.53,1-1.14,2.21-2.05,2.7-4.06,2.2-6.7,5.1-5.91,10.85-.8-8.31-4.36-12.1-12.34-9.98Z"/>
  <path class="cls-28" d="M457.85,365.43c.27.19.54.19.82.01,5.78,2.18,11.07,5.05,14.95,10.07,5.71,7.39.67,21.66-8.54,23.57-3.31.68-6.86.34-7.13,5.67.4-4.76-2.19-5.53-5.6-6.48-8.56-2.38-13.71-8.93-12.82-15.39,1.19-8.64,7.51-17.8,18.33-17.45Z"/>
  <path class="cls-15" d="M247.75,401.62c1.85.13,3.66.15,5.05-1.42,1.06-1.21,2.47-1.74,4.03-1.5,4.26.64,8.64-1.16,12.24-.97,4.71.26,6.98-.71,9.7-3.88,1.36-1.59,4.08-1.97,5.99-.48,3.24,2.53,7.84,2.54,10.47,6.39,1.37,2.01,4.97,1.64,6.47.56,3.95-2.86,7.69-.58,11.49-.52,2.08.03,2.65,1.67,2.59,3.54-.06,2.05-1.43,2.24-3.06,2.36-5.24.37-10.56-.9-15.75.72-17.34.55-34.68.19-52.02-.49-.67-2.48-1.07-4.79,2.81-4.31Z"/>
  <path class="cls-93" d="M494.55,279.5c.12-18.14,0-36.29.41-54.43.93-40.72.69-81.44,1.07-122.16.02-2.4-.96-6.59,2.22-6.55,2.99.04,1.19,4.06,1.47,6.29.79,6.33-.93,12.7.88,19.2.63,2.24-1.55,5.98-1.59,9.17-.2,14.48-.47,28.96-.33,43.44.02,2.39.37,4.39-.46,6.93-1.09,3.32-.34,7.24-.4,10.9-.41,25.12-.49,50.25-1.36,75.35-.42,11.97-.44,23.94-.78,35.9-1.16.16-1.37-.6-1.35-1.48.13-7.52-.39-15.05.24-22.57Z"/>
  <path class="cls-25" d="M532.79,191.72c-.07,22.8.26,45.6-.29,68.39-1,41.12-.45,82.24-.9,123.36,0,.5.04,1-.02,1.5-.18,1.52.54,3.75-2.12,3.63-2.3-.11-1.66-2.14-1.67-3.48-.02-5.99-.28-12.02.18-17.98,1.03-13.14.56-26.29.88-39.43.62-25.28,1.28-50.57,1.82-75.85.48-22.66.79-45.33,1.18-67.99,2.92,2.31,1.08,5.19.94,7.86Z"/>
  <path class="cls-15" d="M320.88,404.72c-.98-.07-1.95-.15-3.04-.23,4.14-2.92,8.11-5.81,12.17-8.56,5.1-3.46,6.8-3.22,10.37,1.43,2.93,3.81,7.63,3.41,11.4,4.04,7.63,1.27,15.57-.61,23.31,1.09,1.06.23,1.87-.54,2.61-1.23.86-.8,2.04-2.05,2.97-1.45,5.41,3.53,8.85-1.24,12.69-3.13,3.61-1.77,5.76-1.49,8.62,1.28,1.66,1.61,3.2,4.57,6.51,3.69-.86,1.6-2.25,2.2-4,2.22-27.87.28-55.75.57-83.62.85Z"/>
  <path class="cls-131" d="M247.75,401.62c-2.54.39-2.03,2.77-2.81,4.31-7.04,1.01-14.05-.15-21.07-.24,1.52-2.78,3.5-4.92,6.92-5.14,3.02-3.62.92-9.59-4.13-11.74-1.4-.6-2.91-.65-4.36-.96-2.93-.62-4.06-2.06-2.07-4.85-3.4-.33-7.4,1.03-9.37-3.33.04-1.98.08-3.97.11-5.95.67-.66,1.34-.56,2,.02-.37,3.25.27,5.24,4.35,4.84,3.64-.35,7.12.59,9.7,3.63.73.86,2.02,2.14,1.89-.56,3.17-.97,3.91,1.78,5.36,3.47.22.62.28,1.3.5,1.92,1.87,5.29,2.02,5.33,7.23,2.25.7-.2,1.33-.12,1.83.48.94,1.7,1.8,3.19-1.13,4.02-1.61.45-2.99,1.72-4.82,2.84,3.22,2.39,9.2-1.26,9.88,5Z"/>
  <path class="cls-32" d="M423.45,71.77c-2.35-4.61-1.41-8.58-2.46-12.19-.48-1.66,1.19-2.15,2.43-2.6,9.18-3.38,18.36-6.77,27.57-10.07,1.31-.47,2.63-1.16,4.25-.2,9.22,5.49,18.51,10.86,27.42,17.11-5.86-2.13-12.01-3.71-17.53-6.51-9.82-4.97-19.59-3.39-29.6-1.38-11.59,2.33-11.61,2.21-12.07,15.85Z"/>
  <path class="cls-12" d="M573.72,144.78c.68,15.56,1.4,31.13,1.98,46.69.04,1.18,1.38,3.83-1.96,3.23-.62-15.74-1.47-31.47-2.9-47.17-.23-2.59-.09-5.21-.13-7.82-1.22-9.5-1.15-19.1-1.54-28.62-.45-10.86-2.29-21.69-1.3-32.6.04-.4.41-.77,1.54-1.14,1.19,20.45,2.39,40.9,3.58,61.35,1.23,1.91-.61,4.19.74,6.08Z"/>
  <path class="cls-117" d="M494.55,279.5c.09,6.45.15,12.89.3,19.34.04,1.59-.58,3.34.81,4.71.95,15.3-1.05,30.53-1.1,45.82-.02,5.97,1.85,8.97,7.35,10.25,1.08.25,2.08.87,3.23,1.37-.97.9-1.7.42-2.47.17q-7.63-2.49-8.94,5.18c0-2.91,0-5.83,0-8.74.03-22.96-.08-45.93.21-68.89.07-5.24-.94-8.67-6.66-9.32-.59-.07-1.13-.61-1.56-1.45,2.94.52,5.88,1.04,8.82,1.56Z"/>
  <path class="cls-49" d="M380.92,286.62c.3.03.59.05.89.07.32,1.1.94,2.21.92,3.3-.36,25.1,1.69,50.17,1,75.27-.01.47-.23.93-.52,2.07-.18-1.3-.33-1.93-.34-2.57-.41-16.93-.52-33.87-1.32-50.78-.43-9.13-1.01-18.23-.63-27.36Z"/>
  <path class="cls-51" d="M532.79,191.72c-.6-2.59.7-5.4-.94-7.86-.03-4.99-.08-9.99-.08-14.98,0-6.93-1.42-9-8.06-10.91-2.2-.63-4.37-1.09-6.41-3.1,5.64-.05,9.88,2.81,14.58,4.7,1.11-7.67.83-15.19,1.88-22.67,0,6.87,0,13.75,0,20.62,0,9.66.01,19.32-.06,28.98-.01,1.76.61,3.7-.91,5.23Z"/>
  <path class="cls-109" d="M484.69,242.03c0,.66.14,1.37-.03,1.98-.39,1.46,1.31,4.07-1.73,4.12-2.4.04-3.31-1.64-3.14-4.06.17-2.48,0-4.98.05-7.47.03-1.3-.11-2.86,1.89-2.81,1.74.04,2.82.98,2.9,2.75.09,1.82.02,3.65.02,5.47.01,0,.02,0,.03,0Z"/>
  <path class="cls-109" d="M484.65,174.4c-1.05,1.63,2.21,5.84-1.99,5.97-4.31.13-2.43-4.15-2.81-6.64-.2-1.3-.16-2.67,0-3.97.17-1.43-.92-3.81,1.8-3.73,1.79.06,2.86,1.58,2.97,3.44.09,1.49.02,2.99.02,4.94Z"/>
  <path class="cls-33" d="M484.7,350.07c0,.66.13,1.35-.03,1.98-.38,1.52,1.19,4.2-1.66,4.27-2.25.05-3.2-1.98-3.19-4.23.02-2.48-.04-4.95.02-7.43.03-1.25-.23-2.94,1.81-2.79,1.34.1,2.7.79,2.86,2.28.21,1.96.05,3.95.05,5.93h.13Z"/>
  <path class="cls-33" d="M484.7,311.73c0,.99.13,2-.03,2.96-.21,1.26.9,3.45-1.35,3.47-1.8.01-3.45-1.17-3.46-3.46-.01-2.8-.03-5.61-.01-8.41,0-1.19.1-2.41,1.69-2.5,1.48-.09,2.78.53,2.96,2.02.24,1.95.06,3.95.06,5.92.05,0,.1,0,.14,0Z"/>
  <path class="cls-33" d="M484.69,114.89c0,.99.11,2-.03,2.97-.18,1.31.8,3.45-1.45,3.55-2.05.09-3.25-1.5-3.34-3.56-.11-2.64-.09-5.28-.04-7.92.03-1.22-.4-3,1.59-2.98,1.76.01,3.19.91,3.24,3,.04,1.65,0,3.3,0,4.95,0,0,.01,0,.02,0Z"/>
  <path class="cls-33" d="M484.7,152.91c0,1.16.07,2.32-.02,3.47-.09,1.22.46,3.06-1.47,3.1-1.69.03-3.27-.87-3.33-2.94-.09-2.97-.06-5.95-.02-8.93.01-1.1-.27-2.55,1.37-2.72,1.5-.15,2.7.9,3.02,2.14.49,1.88.43,3.9.6,5.86-.05,0-.1,0-.15.01Z"/>
  <path class="cls-33" d="M479.83,263.61c0-1-.13-2.02.04-2.99.22-1.25-.94-3.47,1.42-3.43,1.88.03,3.41,1.29,3.4,3.58,0,2.5.08,5-.02,7.49-.05,1.34.55,3.45-1.88,3.2-1.72-.18-3.05-1.26-2.97-3.35.05-1.5.01-3,.01-4.5Z"/>
  <path class="cls-102" d="M507.77,163.46c0,1.32.06,2.64-.02,3.96-.06,1.06.42,2.71-1.21,2.74-1.52.03-2.77-.92-2.87-2.77-.18-3.45.33-6.92-.49-10.34-.21-.89.38-1.73,1.32-1.66,1.36.1,2.73.72,2.98,2.18.33,1.93.27,3.93.38,5.9-.03,0-.06,0-.09,0Z"/>
  <path class="cls-102" d="M507.76,248.18c0,1.33.12,2.68-.04,3.99-.12.97.74,2.68-1.12,2.69-1.5,0-2.95-.63-2.93-2.66.03-3.16-.06-6.32,0-9.49.02-1.03-.43-2.71,1.39-2.55,1.27.11,2.6.85,2.63,2.52.04,1.83,0,3.66,0,5.49.02,0,.03,0,.05,0Z"/>
  <path class="cls-62" d="M507.77,199.14c0,1.49.06,2.99-.02,4.48-.05.87.42,2.27-1.05,2.29-1.28.02-2.86-.26-2.92-2.02-.11-3.48-.08-6.96-.02-10.44.02-1.16.79-1.74,1.99-1.64,1.15.1,1.87.7,1.91,1.85.06,1.82.02,3.65.02,5.47.03,0,.06,0,.09,0Z"/>
  <path class="cls-56" d="M503.68,216.47c3.04.66,4.31,1.96,4.12,4.63-.16,2.32.05,4.67-.07,6.99-.06,1.18.69,3.15-1.26,3.19-1.83.04-2.85-1.38-2.81-3.41.07-3.65.02-7.3.02-11.41Z"/>
  <path class="cls-8" d="M507.72,375.62c-.85,1.56,1.78,5.49-1.75,5.6-3.47.11-2.08-3.77-2.29-6.04-.17-1.81-.08-3.65,0-5.48.04-1.07-.3-2.67,1.47-2.53,1.31.1,2.58.79,2.58,2.51,0,1.83,0,3.66,0,5.95Z"/>
  <path class="cls-102" d="M503.66,307.03c3.45,2.23,5.55,12.66,3.78,14.81-.54.66-1.13.56-1.73.29-1.33-.59-2.07-1.56-2.05-3.1.04-3.8.01-7.6.01-12Z"/>
  <path class="cls-8" d="M507.77,336.31c0,1.32.07,2.64-.02,3.96-.08,1.21.49,3.05-1.39,3.16-2.04.12-2.73-1.47-2.71-3.35.02-2.8-.03-5.61.04-8.41.02-.87-.4-2.25,1.07-2.27,1.27-.02,2.79.2,2.9,1.98.11,1.64.02,3.29.02,4.94.03,0,.06,0,.1,0Z"/>
  <path class="cls-56" d="M503.64,138.92c0-1.15-.13-2.33.04-3.46.17-1.1-.9-3.02,1.28-3.02,1.88,0,2.9,1.17,2.82,3.25-.11,2.63.03,5.28-.05,7.91-.03,1.2.4,2.94-1.65,2.91-1.55-.02-2.31-1.16-2.37-2.65-.07-1.65-.02-3.3-.02-4.95-.02,0-.04,0-.06,0Z"/>
  <path class="cls-18" d="M157.9,397.75c5.17.13,7.84,2.55,7.28,7.94-6.89,1.44-6.32-3.95-7.28-7.94Z"/>
  <path class="cls-43" d="M560.78,143.66c1.19-.68.8-1.91,1.03-2.93.54.59,1.61,1.28,1.52,1.74-.57,2.77-.58,5.54-.56,8.33.01,2.61,0,5.22-.79,7.86-.4-5-.79-10-1.19-15Z"/>
  <path class="cls-43" d="M244.63,7.81c0,7.96,0,15.93,0,23.89-.27-.32-.54-.64-.82-.97.5-7.63-1-15.34.82-22.93Z"/>
  <path class="cls-43" d="M538.73,102.58c-3.18-.81-6.11-2.19-8.91-3.88,2.2-1.71,4.21-2.26,6.01.63.76,1.21,1.92,2.18,2.89,3.26Z"/>
  <path class="cls-43" d="M549.89,183.66c.17-5.34-.73-10.73.85-15.99-.4,5.32.98,10.74-.85,15.99Z"/>
  <path class="cls-43" d="M547.94,225.64c.08-3.37-.69-6.81.76-10.08-.23,3.36.89,6.83-.76,10.08Z"/>
  <path class="cls-43" d="M551.94,135.65c.06-2.67-.71-5.42.72-7.97.89,2.76.25,5.38-.72,7.97Z"/>
  <path class="cls-43" d="M548.93,202.65c.06-3.38-.66-6.82.77-10.1-.22,3.37.9,6.84-.77,10.1Z"/>
  <path class="cls-62" d="M211.83,65.89c-7.83-2.54-16.03-2.48-24.09-3.13-8.77-.71-8.82-.45-8.83,8.49-.03,33.15-.03,66.3-.04,99.45-1.06-.36-2.11-.73-3.17-1.09-.63-22.73-1.28-45.45-1.89-68.18-.38-14.11-.6-28.22-1.19-42.32-.13-3.14.86-3.77,3.52-3.36,9.48,1.49,18.95,2.97,28.44,4.43,1.79.28,3.6.47,5.41.6,1.36.09,2.81.09,3.47,1.47.81,1.7-.21,2.82-1.62,3.65Z"/>
  <path class="cls-1" d="M124.83,76.58c3.69-.83,6.91-2.65,10.05-4.67,8.58-3.74,17.16-7.49,25.74-11.24.18.33.36.67.54,1-3.57,1.92-7.14,3.82-10.71,5.75-6.99,3.79-13.93,7.67-20.98,11.34-2.07,1.08-2.77,2.42-2.74,4.69.15,15.1.18,30.21.25,45.32.82,9.9.2,19.81.32,29.71.04,3.19-1.31,3.62-3.47,1.24-.83-17.81-1.29-35.65-2.33-53.43-.5-8.51.63-17.15-1.4-25.64-.78-3.27,3.27-2.55,4.74-4.08Z"/>
  <path class="cls-41" d="M155.78,163.75c-.35-.04-.69-.09-1.04-.13-1.13-20.26-.48-40.55-1.24-60.8-.33-8.96-.46-17.92-.63-26.88-.03-1.52-.66-3.28,1.67-5.48,1,31.67,1.63,62.47,1.23,93.29Z"/>
  <path class="cls-43" d="M132.13,98.57q1.98,9.22,8.2,8.58c-.48.68-.77,1.53-1.17,1.59-6.13.88-5.5,5.38-5.33,9.69.48,12.09-.88,24.21.89,36.3.44,3.03.67,4.49,3.95,2.64,1.42-.8,3.06-1.18,5,.43-3.61,1.81-7.34,2.78-10.89,5.86.64-22.23-2.08-43.47-.65-65.09Z"/>
  <path class="cls-43" d="M123.82,159.72c3.34,1.95,3.1-.49,3.1-2.56.02-9.46.03-18.93.05-28.39,1.82,3.97.66,8.17.82,12.25.22,5.82.06,11.66.05,17.49,0,1.32.16,2.9-1.71,3.05-1.14.09-2.86.41-2.31-1.84Z"/>
  <path class="cls-84" d="M164.92,117.4c-.38,1.65.76,4.41-1.64,4.48-2.04.06-1.34-2.58-1.35-4.08,0-1.67-.69-4.38,1.67-4.4,2.26-.02.81,2.63,1.31,4Z"/>
  <path class="cls-53" d="M150.9,111.24c-.42,1.48.72,4.04-1.55,4.07-2.37.03-1.35-2.5-1.45-3.95-.1-1.56-.4-4.07,1.58-4.06,2.39,0,.88,2.6,1.41,3.94Z"/>
  <path class="cls-53" d="M150.88,97.11c-.43,1.48.83,4-1.41,4.16-2.52.18-1.44-2.39-1.56-3.79-.13-1.56-.47-4.05,1.47-4.14,2.57-.13.92,2.5,1.49,3.78Z"/>
  <path class="cls-61" d="M164.46,99.93c.2,1.28.45,1.93.37,2.53-.3,2.19.98,4.68-1.1,6.52-.57.51-1.51.27-1.56-.43-.2-2.8-1.35-5.87,2.29-8.62Z"/>
  <path class="cls-61" d="M150.91,148.14c-.39,1.53.78,4.06-1.44,4.2-2.49.16-1.46-2.41-1.55-3.84-.11-1.56-.53-4.07,1.47-4.16,2.56-.12.95,2.52,1.52,3.8Z"/>
  <path class="cls-34" d="M164.5,153.73c.2,1.51.44,2.17.35,2.79-.33,2.18,1.02,4.7-1.19,6.5-.66.54-1.5.13-1.54-.51-.15-2.81-1.18-5.88,2.38-8.78Z"/>
  <path class="cls-106" d="M164.95,81.59c-.53,1.54.86,4.36-1.81,4.25-1.95-.08-1.15-2.7-1.21-4.23-.07-1.56-.46-4.02,1.68-3.97,2.49.06.68,2.63,1.34,3.95Z"/>
  <path class="cls-61" d="M147.81,133.66c.19-1.89-.36-4.4,1.68-4.37,2.35.03,1.16,2.58,1.28,4.01.13,1.51.48,3.93-1.81,3.78-2.09-.14-.41-2.53-1.15-3.41Z"/>
  <path class="cls-43" d="M89.74,111.9c-.1,1.23-.82,1.74-1.98,1.7-1.19-.04-1.88-.64-1.66-1.87.19-1.07.92-1.75,2.04-1.8,1.33-.05,1.61.86,1.59,1.96Z"/>
  <path class="cls-43" d="M169.34,56.87c-1.19,3.04-3.6,2.93-5.88,3.05,1.34-1.83,3.1-2.92,5.88-3.05Z"/>
  <path class="cls-88" d="M198.8,47.75c4.73,1.87-.22,4.55.05,6.78,0-2.28,0-4.55,0-6.83,0,0-.05.05-.05.05Z"/>
  <path class="cls-113" d="M647.75,349.26c-1.46-1.42-.87-2.99-.87-4.37-.04-34.63-.04-69.27-.05-103.9,0-.67-.02-1.33.01-2,.08-1.45-.28-3.65,1.6-3.63,2.15.03,1.28,2.33,1.28,3.63.03,34.63,0,69.27-.03,103.9,0,2.28-.21,4.47-1.95,6.36Z"/>
  <path class="cls-16" d="M623.33,315.6c-7.86,1.37-4.55,8.26-6.47,12.53-1.55-3.9-1.73-8-.83-11.58.94-3.75,4.52-1.35,7.3-.95Z"/>
  <path class="cls-80" d="M633.11,291.13c-.31-3.88-.35-6.34-.73-8.74-1.29-8.05-1.04-8.34,8-7.04-9.39,1.66-5.63,9.15-7.27,15.78Z"/>
  <path class="cls-29" d="M659.65,343.01c0-3.9,0-7.2,0-10.51,0-5.44.72-5.84,6.27-3.41-7.94,2-1.69,9.8-6.27,13.92Z"/>
  <path class="cls-140" d="M615.61,151.77c.06-7.98.13-15.95.19-23.93,1.24-3.96-.27-8.1.82-12.07.05-8.65.11-17.31.16-25.96,1.37-4.28-.42-8.8.96-13.08.1-1.26.19-2.51.29-3.77.28,0,.56.02.85.03v61.78c.7,2.11.33,4.29.33,6.43.03,17.73.02,35.47.04,53.2,0,1.79-.44,3.66.45,5.39-.01,5.11-.32,10.24.06,15.32.3,3.99-.76,6.53-4.77,7.49-1.73.04-3.46.09-5.2.13,3.07-1.2,4.25-3.29,4.07-6.7-.29-5.38-.07-10.79-.06-16.19,1.25-4.97-.29-10.1.82-15.08l.08-13.05c-.33-.23-.44-.46-.32-.68.11-.22.23-.33.34-.33.02-.98.03-1.95.05-2.93,1.27-5.28-.22-10.71.83-16Z"/>
  <path class="cls-134" d="M610.85,226.21c-2.07.44-3.63.77-5.27,1.12.08-.42.03-.82.19-.94,1.75-1.3,4.34-3,5.75-2.18,2.01,1.18.8,4.18.68,6.41-.92,16.63-.22,33.28-.49,49.92-.08,4.63-.01,9.27-.85,13.91v-68.23Z"/>
  <path class="cls-43" d="M560.91,122.72c7.06,1.98,1.54,5.26.83,8.04-1.66-2.54-.64-5.35-.83-8.04Z"/>
  <path class="cls-43" d="M619.71,199.79c-.92-.92-.84-2.11-.84-3.27,0-20.58,0-41.17.01-61.75,1.45,1.56.83,3.48.84,5.24.06,9.97.17,19.94-.05,29.91-.08,3.51.95,5.46,4,7.57,7.88,5.42,14.83,12.12,23,17.19,0,1.01,0,2.02,0,3.02-7.3-3.07-12.56-8.99-18.84-13.5-2.37-1.7-4.87-5.37-7.05-4.61-2.41.85-.83,5.02-.98,7.73-.22,4.14-.08,8.3-.1,12.46Z"/>
  <path class="cls-75" d="M233.63,385.95c-1.34-1.69-2.52-3.55-4.72-4.3,0,0-.05-.07-.05-.07-1.64-2.46-2.45-5.36-4.16-7.78-5.67-12.29,1.07-34.69,12.55-41.34,4.82-2.79,10.1-2.58,14.96-.58,8.87,3.66,16.36,9.05,21.24,17.82,4.18,7.52,1.85,14.87.71,22.33-.3,1.95-1.06,3.84-1.62,5.75-.64,1.23-.5,2.78-1.62,3.81-.62,2.1-1.69,3.32-3.92,1.83-6.18-4.14-12.04-.62-17.94.83-1.23.3-2.13,1.65-2.2,3.09-.1,2.04-1.41,2.39-3.04,2.42-.66-.02-1.32-.05-1.99-.07-3.79,1.07-6.42-.4-8.21-3.74Z"/>
  <path class="cls-9" d="M165.65,363.49c-2.97.46-6.15-.13-8.84,1.76-1.28-26.54-2.58-53.07-3.82-79.61-.82-17.43-1.48-34.87-2.32-52.3-.55-11.43-1.29-22.84-1.25-34.31.79,8.05,1.66,16.1,2.35,24.16,2.34,27.45,4.64,54.9,6.91,82.35,1.45,17.53,2.85,35.06,4.17,52.6.17,2.32.61,4.23,2.81,5.35Z"/>
  <path class="cls-50" d="M212.7,361.79c-2.11-.66-2.78-2.54-3.62-4.28,1.39-1.95.82-4.19.82-6.3.03-47.64,0-95.29.08-142.93,0-1.73-1.23-4.93,1.26-4.97,2.36-.03,1.59,3.19,1.59,5.06.05,50.47.05,100.95.06,151.42,0,.66-.12,1.32-.19,1.99Z"/>
  <path class="cls-65" d="M218.23,365.74c-1.79-2.57-2.6-155.71,0-162.61v162.61Z"/>
  <path class="cls-131" d="M270.94,381.59c-.1-1.54-.09-3.04,1.62-3.81,1.47,5,4.71,1.49,7.21,1.5,1.71.01,3.41.03,5.11.05.66-.41,1.35-.42,2.07-.22.95.6,2.39.88,1.7,2.57-.61.3-2.37-.61-1.56,1.15.62,1.35,1.25,2.6,1.26,3.93-5.75,2.5-11.1-2.04-17.11-.43.11-2.34,1.35-3.31,3.24-3.61,1.61-.26,3.58,1.41,4.94-1.13h-8.49Z"/>
  <path class="cls-85" d="M163.66,245.51c1.33.53,3.83-.66,3.83,1.86,0,1.83-2.04,1.25-3.24,1.2-1.52-.07-3.88.54-3.89-1.83-.01-1.85,2.08-.92,3.3-1.23Z"/>
  <path class="cls-55" d="M169.04,321.59c1.3.37,3.64-.47,3.51,1.59-.15,2.39-2.55,1.29-4,1.35-1.37.06-3.54.22-3.23-1.84.28-1.91,2.4-.86,3.72-1.1Z"/>
  <path class="cls-105" d="M164.39,256.78c-1.24-.38-3.57.56-3.25-1.79.27-1.99,2.42-1.14,3.77-1.15,1.39,0,3.59-.21,3.28,1.87-.29,1.95-2.46.77-3.8,1.07Z"/>
  <path class="cls-54" d="M163.68,239.88c-1.28-.54-3.83.77-3.63-1.83.15-1.97,2.33-1.17,3.66-1.21,1.41-.05,3.5-.24,3.49,1.64-.01,2.19-2.2,1.11-3.51,1.4Z"/>
  <path class="cls-19" d="M160.99,197.76c-1.37-.45-3.84.76-3.9-1.63-.05-2.11,2.21-1.34,3.51-1.32,1.48.02,3.81-.53,3.69,1.88-.09,1.75-2.12.74-3.3,1.07Z"/>
  <path class="cls-46" d="M165.67,269.7c-1.43-.39-3.78.52-4.04-1.63-.2-1.68,1.81-1.55,3.04-1.37,1.43.21,3.74-.88,3.99,1.52.2,1.94-1.78,1.3-2.99,1.48Z"/>
  <path class="cls-24" d="M161.17,207.61c1.3.34,3.5-.52,3.53,1.64.03,1.84-1.97,1.35-3.18,1.33-1.37-.02-3.49.53-3.5-1.63-.02-1.99,1.98-1.05,3.15-1.33Z"/>
  <path class="cls-22" d="M161.13,264.23c.37-.9.41-1.14.49-1.17,2.38-.59,4.78-1.13,6.9.65.17.15.02,1.13-.23,1.26-2.51,1.33-4.63-.31-7.17-.74Z"/>
  <path class="cls-126" d="M160.07,188.6c1.3.3,3.34-.52,3.59,1.59.2,1.67-1.43,1.51-2.54,1.37-1.53-.19-3.76.17-3.9-1.95-.09-1.45,1.76-.86,2.85-1.01Z"/>
  <path class="cls-98" d="M166.05,338.05c.44-.78.49-1.01.59-1.04,2.36-.63,4.73-1.09,6.82.68.16.13-.07,1.17-.27,1.22-2.41.64-4.68.15-7.14-.87Z"/>
  <path class="cls-123" d="M165.16,277.23c1.14.95,4.15-.89,4.05,1.81-.06,1.58-2.51.8-3.86.75-1.11-.05-3.05.63-3.01-1.42.03-1.52,1.43-1.5,2.83-1.13Z"/>
  <path class="cls-125" d="M163.33,301.87c3.15-1.83,5.44-1.66,7.64-.3.18.11.09,1.2-.06,1.25-2.4.8-4.63.2-7.58-.95Z"/>
  <path class="cls-131" d="M224.71,373.79c2.98,1.74,3.97,4.55,4.16,7.78-2.71-1.89-3.92-4.58-4.16-7.78Z"/>
  <path class="cls-131" d="M212.96,373.74c-.67,0-1.33-.01-2-.02,1.32-2.55,2.19-5.2,1.94-8.12,1.78,2.7,1.36,5.42.06,8.14Z"/>
  <path class="cls-136" d="M575.62,138.71c-1.27-20.37-2.54-40.74-3.81-61.11.54-.09,1.08-.19,1.63-.28.41,1.6,1.17,3.21,1.16,4.81-.03,6.49.73,12.92,1.05,19.38,1.14,22.84,2.03,45.69,3.98,68.49.54,6.28.22,12.57.85,18.89,1.04,10.39.95,20.89,1.28,31.35.03,1.04.49,2.41-1.59,3.12-1.53-27.65-3.05-55.13-4.57-82.62-.45-.68-.45-1.35.02-2.02Z"/>
  <path class="cls-43" d="M614.73,170.7c0,.34-.01.67-.02,1.01-2.74.53-5.08,3.49-8.72,1.06,1.84-1.12,5.17-1.98,1.66-4.71-1.78-1.39-4.17-2.16-5.2-4.78,1.84-.84,3.63-1.91,5.57-2.45,1.06-.3,3.03-.76,3.19,1.18.1,1.31-1.41,1.62-2.63,1.69-.65.04-1.29.13-2.33.24,1.97,3.7,5.42,4.99,8.48,6.76Z"/>
  <path class="cls-43" d="M609.27,117.78c4.14-1.36,2.45,2.39,2.62,3.35.47,2.54-2.26,2.13-3.7,2.44-2.88.61-1.82-1.91-2.12-3.24-.71-3.16,1.76-2.36,3.19-2.55Z"/>
  <path class="cls-43" d="M605.76,90.34c-1.33,3.55-3.14,5.81-7.44,7.22,2.38-3.38,3.21-6.66,7.44-7.22Z"/>
  <path class="cls-43" d="M612.31,65.07c-.56,1.52-1.85,1.66-3.19,1.64-1.16-.02-2.79-.15-2.6-1.49.26-1.92,2.22-1.44,3.62-1.47.94-.02,2.04-.09,2.18,1.31Z"/>
  <path class="cls-43" d="M612.29,99.75c-.19,1.53-1.26,1.88-2.44,1.92-1.26.04-2.95.38-3.28-1.25-.32-1.57,1.25-1.66,2.35-1.64,1.18.02,2.64-.58,3.38.97Z"/>
  <path class="cls-43" d="M612.33,129.27c-.11,2.08-1.98,1.18-2.99,1.69-1.08.55-2.53.9-2.93-.56-.59-2.19,1.55-1.43,2.55-1.87,1.26-.56,2.54-1,3.37.74Z"/>
  <path class="cls-43" d="M606.35,106.65c1.82-.6,3.45-2.35,5.47-1.04.62.4.73,1.37.09,1.64-1.83.76-3.74.79-5.56-.6Z"/>
  <path class="cls-43" d="M615.61,151.77c-.2,5.34.91,10.74-.83,16,.4-5.33-.99-10.75.83-16Z"/>
  <path class="cls-43" d="M613.05,78.63c-2.48,1.24-4.01,2.79-6.22,1.34-.25-.16-.38-1.06-.21-1.22,1.78-1.64,3.66-1.25,6.43-.13Z"/>
  <path class="cls-43" d="M614.62,184.76c-.27,5.02,1.05,10.14-.82,15.07.38-5.02-1.09-10.14.82-15.07Z"/>
  <path class="cls-43" d="M606.35,146.72c1.7-.88,3.31-2.15,5.32-1.23.22.1.38,1.06.2,1.23-1.68,1.58-3.57,1.16-5.52,0Z"/>
  <path class="cls-43" d="M606.24,69.88c2.61-1.23,4.19-2.03,6.07-1.25.16.07.21,1.06-.01,1.26-1.51,1.39-3.2.93-6.06-.02Z"/>
  <path class="cls-43" d="M617.74,76.73c-.41,4.35,1.04,8.84-.96,13.08.48-4.35-1.21-8.85.96-13.08Z"/>
  <path class="cls-43" d="M605.76,113.5c2.46-2.32,4.27-1.88,6.43-1.34-1.68,2.35-3.68,1.44-6.43,1.34Z"/>
  <path class="cls-43" d="M616.63,115.77c-.22,4.03.95,8.15-.82,12.07.33-4.02-.98-8.15.82-12.07Z"/>
  <path class="cls-43" d="M575.62,138.71c0,.67,0,1.35-.02,2.02-2.57.45-1.6,2.54-1.88,4.05-1.45-1.88-.67-4.03-.74-6.08.88,0,1.76,0,2.64,0Z"/>
  <path class="cls-111" d="M266.09,8.46c.59-2.24,2.06-2.14,3.01-2.2,19.84-1.24,39.7-3.36,59.4,1.41,1.12.27,2.22.67,3.31,1.05,2.25.77,2.64,2.69,1.93,4.44-.72,1.78-2.21.31-3.31,0-15.8-4.38-31.93-5.35-48.23-4.72-5.26.2-10.53.03-16.1.03Z"/>
  <path class="cls-115" d="M265.98,25.83c.63-2.43,1.83-2.42,2.7-2.5,20.35-1.71,40.71-3.36,60.88,1.54,4.1,1,4.26,1.48,4,6.12-21.99-6.87-44.56-6.7-67.58-5.16Z"/>
  <path class="cls-115" d="M294.74,13.51c12.74.08,22.59-.27,32.21,2.21,1.92.5,3.82,1.17,5.63,1.98,1.74.78,1.59,2.48,1.14,3.91-.45,1.43-1.61.65-2.48.36-19.88-6.51-40.41-5.24-60.85-5.04-.5,0-1,.06-1.49.09-.95.07-2.31.54-2.53-.73-.31-1.84,1.41-1.44,2.42-1.52,9.62-.71,19.24-1.56,25.97-1.27Z"/>
  <path class="cls-71" d="M559.17,340.7c-.09-2.53,1.17-3.21,2.28-3.81,5.22-2.85,10.48-5.63,15.74-8.39,1.14-.6,2.52-1.51,3.31.35.63,1.46-.09,2.7-1.56,3.12-6.81,1.95-12.7,6.07-19.78,8.73Z"/>
  <path class="cls-42" d="M559.3,301.32c.88-2.39,3.16-2.77,4.88-3.79,4.11-2.42,8.21-4.87,12.4-7.14,1.13-.61,2.73-2.42,3.81-.65,1.16,1.91-.32,3.35-2.21,4.18-4.38,1.92-8.7,4.01-13.15,5.77-1.74.69-3.27,2.37-5.73,1.63Z"/>
  <path class="cls-27" d="M559.58,288.24c5.72-5.02,12.98-7.19,19.04-11.42.61-.43,1.71-.85,1.99.32.3,1.25.51,2.85-1.03,3.49-6.6,2.72-12.78,6.53-20,7.61Z"/>
  <path class="cls-14" d="M559.55,267.45c5.54-5.09,12.58-7.57,18.78-11.45.75-.47,1.73-.25,2.11.63.4.93.49,2.27-.52,2.67-6.77,2.74-13.15,6.48-20.37,8.15Z"/>
  <path class="cls-21" d="M210.85,379.67c3.94,3.3,8.94,1.15,13.19,2.37.3,1.03-.16,1.35-.88,1.54-1.17.3-3.15-.28-2.99,1.7.15,1.84,2.02,1.25,3.25,1.38,6.13.64,10.82,5.22,11.35,11.14.29,3.22-1.94,2.86-3.97,2.76-1.29-4.11-3.64-3.45-6.37-1.46-2.44,1.79-4.54,3.65-6.74-.8-2.05-4.18-7.05,1.6-9.84-2.08-3.12-4.12-5.99-2.09-8.66.63-1.25,1.27-2.59,2.06-4.42,1.79-2.76-2.51-2.56-5.66-1.91-8.9,3.93-3.81,7.81-7.51,13.96-7.37,1.32.03,2.69-1.74,4.03-2.68Z"/>
  <path class="cls-131" d="M192.87,389.72c2.17,2.64.6,6.08,1.91,8.9-1.77.27-3.57.22-3.58-2.11-.01-2.35-1.96-5.3,1.67-6.79Z"/>
  <path class="cls-118" d="M287,379.68c2.84-.87,1.8-3.25,1.8-5.05.06-28.99.04-57.98.04-86.97,0-78.14,0-156.28.02-234.42,0-1.95-.48-3.98.66-6.14,2.18,1.48,1.24,3.64,1.24,5.34.07,31.32.05,62.65.05,93.97,0,77.31.03,154.62.01,231.92,0,1.43.6,3.02-.77,4.23-.47-.3-.94-.59-1.42-.89-.55-.67-1.1-1.33-1.65-2Z"/>
  <path class="cls-131" d="M233.63,385.95c2.22,2.38,5.42,2.61,8.21,3.74-.17,3.5-3.6,2.89-5.44,3.66-2.02.85-1.63-1.9-1.59-3.09.06-1.64-2.55-2.43-1.19-4.31Z"/>
  <path class="cls-60" d="M305.78,391.59c-.66-.03-1.32-.06-1.98-.09,0-113.37,0-226.73,0-340.78,2.95,1.78,1.95,3.97,1.95,5.64.08,27.81.06,55.62.06,83.43,0,83.93-.02,167.86-.03,251.79Z"/>
  <g>
    <path class="cls-128" d="M626.62,445.53c-3.58-.5-7.13-1.01-10.71-1.51-1.57.2-1.64-.94-1.78-2-.11-.79.13-1.64-.4-2.34-.52-.65-1.1-1.44-1.75-.16-.81,1.55-2,1.17-3.22.74-.76-.27-1.46-.7-2.23-.92-3.38-.94-5.85.85-5.99,4.32-.07,1.6.13,3.24-.18,4.81-.2,1.06-.16,2.41-1.78,2.52-.18-.02-.36-.04-.54-.09-.92-3.26-.29-6.57-.45-9.88-.07-1.8-.74-2.59-2.59-2.56-1.67,0-2.38.65-2.48,2.36-.16,2.45.63,5.02-.76,7.36-1.53.29-1.44-.97-1.6-1.82-.27-1.51-.09-3.06-.13-4.59-.09-3.4-.83-3.89-4.12-2.7-1.21,2.38-.45,4.93-.56,7.38-.16,3.74-.65,4.41-4.39,4.41-1.91,0-3.96.54-5.62-.99.25-1.91,1.85-1.4,2.9-1.42,4.79-.13,4.81.36,4.79-5,0-5.09,0-5.02-5.18-5.09-2.27-.02-4.25,0-4.86,2.88-.25,1.19-1.55,1.62-2.65,2.07-3.01,1.19-3.01,1.22-2.05,4.28.16.52.34,1.01.43,1.55.81,1.73,1.26,3.56,1.6,5.42.27,1.57,1.08,2.45,2.7,2.36,5.11-.29,10.17.97,15.32.27,2.5-.34,5.22-.29,7,2.23-5.22,6.44-12.17,2.93-18,2.25-9.9-1.15-9.68,4.19-8.91,10.89.31,2.86.34,5.74.5,8.59.76,1.87-.31,2.21-1.78,2.05-1.98-.2-3.67-1.94-3.94-4.09-.27-2.12-.36-4.23.18-6.32,5.08-2.66,2.77-7.16,2.75-11.07-.88-6.55-2.32-12.8-6.19-18.45-7.31-10.71-20.59-16.02-33.19-13.46-10.94,2.23-22.73,13-24.59,25.43-.11.79-.45,1.55-.07,2.36.72-.45.79-1.31,1.26-1.91.23-.29.38-.63.38-.99-.18-4.43,1.96-7.85,4.77-10.96.56-.63.81-1.4.99-2.18.25-1.12.86-2,1.98-2.38,2.77-.9,4.73-2.88,6.57-4.97,1.26-1.42,2.63-2.45,4.66-2.18,2.7.68,5.11-.54,7.54-1.33,1.53-.5,2.86-.81,4.34.11,1.49.92,3.31.45,4.97.88,12.26,3.06,21.01,13.19,22.05,25.81.45,5.49.34,10.96-2.23,16.04-.43.85-.45,1.71-.29,2.61-.47,3.06-2.61,5.02-4.77,6.86-5,4.28-10.57,7.25-17.39,7.27-2.79,0-5.56,0-8.35-.02-4.73-.04-8.98-1.57-12.96-4.03-2.07-1.44-4.97-1.62-6.32-4.19-.72-1.8-1.98-3.24-3.53-4.34-6.05-4.37-10.12-10.15-12.31-17.26-.38-1.26-1.15-1.94-2.43-2.23-1.26-.27-2.54-.79-3.15-1.91-1.53-2.81-4.19-2.99-6.77-2.86-4.95.29-9.79,1.42-14.65,2.27-1.31.22-1.75,1.06-1.85,2.27-.09,1.53-.02,3.06-.29,4.57-.74,4.16-2.88,6.3-7.11,6.97-1.6.25-3.19.52-4.81.61-15.46.7-30.89.99-46.33-.41-7.13-.65-8.8-2.29-9.65-9.43-.11-.94.13-2.07-1.28-2.29-8.44-.2-16.88-.07-25.29.63-4.03.34-8.06.45-12.04,1.17-8.32.63-16.65,1.19-24.97,1.89-9.59.81-19.15,1.55-28.73,2.45-6.16.56-12.33,1.24-18.54,1.28-2.88.02-5.69,1.01-8.59.31-2.86-.99-4.09-3.67-2.77-6.05.83-1.51,1.69-1.46,2.75.09.11,2.12,1.64,2.07,3.1,1.98,4.3-.25,8.59-.79,12.87-1.19,6.79-.68,13.61-1.08,20.38-2,7.92-1.08,15.93-1.26,23.87-1.96,8.06-.7,16.11-1.26,24.16-1.89,10.57-.83,21.13-1.6,31.72-1.55,2.7,0,5.04.5,7.27,2.21,3.04,2.34,4.48,1.84,6.03-1.64.59-1.31,1.49-2.21,2.72-2.86,2.9-1.53,5.98-2.66,9.27-2.47,5.4.29,10.78-.25,16.15-.16h.81c-.29,0-.61.07-.86,0-3.4-1.15-6.7.27-10.08.29-1.62,0-2.97-.27-3.96-1.75-1.31-1.98-3.4-1.37-5.2-1.12-4,.56-8.03,1.03-12.08.85-1.17-.04-2.34.04-3.42-.52-1.19-1.82.47-2.16,1.49-2.52,1.96-.68,4.05-.85,6.12-.97,5.47-.34,10.91-1.08,16.36-1.6.45-.04.94-.29,1.33-.16,2.23.85,3.98,1.01,4.93-1.87.31-.99,1.67-.85,2.63-.36,2.16,1.12,4.3,2.34,6.82.83.58-.34,1.26.07,1.71.54,1.31,1.4,2.99,1.46,4.73,1.49,3.87.04,7.72.43,11.56.81,2.43.22,4.5-.09,6.23-1.78,3.13-3.08,6.64-5.18,11.2-5.04,1.42.04,1.67-.81,1.08-1.98-1.1-2.23-2.81-3.67-5.33-4.14-5.81-1.06-11.65-.63-17.5-.59-1.78,0-2.65,1.22-3.38,2.68-1.49,2.95-5.29,4.19-8.21,2.79-1.12-.54-1.46-1.53-1.6-2.63-.13-1.1.25-2,1.39-2.29,1.12-.29.81-.47.09-.97-1.28-.85-2.48-1.44-4.21-1.17-2.16.31-4.32-.36-6.62.31-1.53.45-3.42-.38-4.61-1.71-.83-.92-1.69-2.14.27-2.97,3.42-.27,6.82-.13,10.21-.11,19.01.04,38.02-.13,57.04.09,2.05,2.07,4.61,2.05,7.31,2.05,4.34,0,5.04.88,4.66,5.04-.36,3.87-2.56,6.37-6.07,7.81-.92.38-1.89.5-2.86.68-1.19.22-2.63.13-3.06,1.69-.43,1.53.9,1.94,1.85,2.56.54.34,1.06.76.94,1.49-.11.76-.79.94-1.42.94-1.15,0-2.05.52-2.93,1.15-1.01.72-2.14.9-3.31.41-1.39-1.46-3.31-1.12-5.04-1.4-4.77-.72-9.52-1.6-14.26-2.43-1.19-.2-2.48-.76-3.49.5-1.26.92-1.12,1.53.43,1.73,2.95.38,5.83,1.01,8.77,1.44,5.69.83,11.32,1.91,16.99,2.86.45.07.88.29,1.31.25.92-.07,3.01,2.47,2.45-1.06-.05-.29.29-.65.61-.85,4.34-2.86,5.96-7.97,9.5-11.54,1.21-1.24,1.01-3.69.81-5.67-.07-.63-.31-1.31.4-1.66.65-.34,1.31,0,1.69.47,1.39,1.75,2.83,1.22,4.52.45,2.45-1.1,5-2,7.56-2.84,1.04-.34,2.09-.61,2.9-1.35,1.49-1.35,2.95-1.75,4.86-.7,2.09,1.15,3.53-.25,4.79-1.75.79-.38,1.6-.36,2.41-.09,1.82.9,3.74,1.62,5.58,2.47,2.54,1.19,4.88.38,6.95-1.24.7-.54,1.17-1.35,2.16-1.44,21.56-.59,43.13-.29,64.69-.31,1.53,0,3.08.13,4.45.85,1.1.56,2.34,1.22,1.55,2.86-1.42,1.84-2.83,3.71-4.25,5.56.34.13.58.45.9.54,4.5,1.44,5.96,4.66,5.42,9.09-.2,1.62.34,2.77,2.18,3.01.56.07,1.26.31,1.17,1.17l.02.11Z"/>
    <path class="cls-81" d="M176.35,327.81c2.02-8.89,7.09-14.02,16.74-13.39,1.66,1.8,6.1,2.54,8.37,1.42.25-.11.58-.2.58-.47,0-.43-.41-.56-.74-.67-1.28-.45-2.66-.38-3.98-.56-1.58-.2-3.28-.2-4.21-1.89-.13-2.7,1.33-3.62,3.53-2.48,12.73,6.7,26.26,2.7,39.47,3.08,10.51.31,21.02.65,31.55.99-.09,1.82-1.35,2.54-2.88,3.02-.88.27-1.87.2-2.68.7.88.45,1.84.52,2.77.83,1.42.47,2.56,1.22,3.02,2.75,1.04,4.05.95,8.23,1.19,12.33.7,11.2,1.19,22.43,1.31,33.66.09,9.16-.65,18.27-.34,27.43.04,1.08.18,2.25-.52,3.13-1.24,1.53-.85,2.79.38,4.03.97,1.49.72,3.04.25,4.61-1.01,3.33-1.53,6.79-2.68,10.06-1.22,3.4.38,5.81,2.27,8.24,1.51,2.43,2.45,5.11,3.38,7.78.34,1.01.72,2.07-.47,2.86-4,.74-4.93.31-6.5-3.26-1.96-4.43-3.92-8.87-5.92-13.28-.58-1.28-1.12-2.68-2.66-3.24-1.48-.59-3.02-.38-4.55-.38-4.16-.04-4.5-.36-4.52-4.43v-61.47c0-1.62.02-3.24.56-4.77,1.15-3.26,1.87-6.39.83-10.01-.99-3.42-.38-7.11.38-10.67.54-2.5.09-3.13-2.47-3.08-3.17.05-6.5-.7-9.43,1.31-2.86.38-5.72.5-8.57-.11-.99-.2-1.98-.16-2.95-.16-8.1,0-16.2-.22-24.28.09-4.19.16-8.44.05-12.55,1.03-2.54.61-5.04,1.37-6.86,3.49-.56.65-1.37,1.58-2.25.97-1.06-.74-.16-1.78.18-2.66.09-.25.29-.45.38-.72.11-.27.54-.52.2-.81-.11-.09-.38.29-.54.52-.9,1.24-1.66,2.56-2.68,3.73-.54.63-1.01,1.62-2.16.94-.05,0-.02-.14,0-.22,0-.09.07-.16.11-.25h-.07Z"/>
    <path class="cls-133" d="M281.65,306.34c.18,1.8.38,3.58.56,5.38.63,4.16.34,8.35.54,12.51.16,3.28-.18,6.55.16,9.83.27,2.52.02,5.15-.2,7.67-.2,2.18-.16,4.21.43,6.3-.2,4.72-.18,9.47-.07,14.2.18,8.35-.41,16.65-.38,24.97.02,7.02,0,14.02,0,21.04,0,1.62,0,3.24-.7,4.75-.11.22-.13.52,0,.79-.09-.13-.09-.31-.02-.45.79-2.05,2.63-1.62,4.14-1.62,10.33-.09,20.68-.02,31-.04.54,0,1.08.02,1.62.16,1.98.25,3.94-.22,5.92-.22,35.91.04,71.8.02,107.71.02,1.62,0,3.24-.09,4.84.22,1.39.34,2.65,1.08,4.12,1.26.52.07,1.1.29,1.17.92.09.74-.47,1.15-1.06,1.4-1.53.61-3.13.72-4.75.79-8.8.36-17.62.25-26.41.27-13.46.02-26.91,0-40.37,0h-1.31,1.35c7.65,0,15.28-.02,22.93.02,1.12,0,2.9-.59,2.9,1.37,0,1.66-1.35,1.89-2.77,1.62-.13-.02-.25-.13-.41-.11.04.13.2.07.41.11,2.05.43,3.74-.63,5.2-1.69,1.35-.97,2.63-1.46,4.21-1.35.36.02-.09,0,.27,0,16.72.41,33.41-.72,50.13-.29.72,0,1.44-.04,2.14.16.74.2,1.35.56,1.39,1.42.05.72-.4,1.22-1.01,1.44-1.24.41-2.23,1.15-3.01,2.16-.11.13-.29.22-.4.34-1.55,1.53-2.95-1.46-4-.36-1.21,1.24-2.16,1.75-3.67.88-2.16-1.28-4.27-1.22-6.68-.47-2.9.88-6.05.38-9.07.88-1.6.27-3.19.34-4.68,1.03-1.44.16-2.88.09-4.32.09h-133.56c-1.42,0-2.9-.22-4.19.7-3.89,1.96-5.69.99-5.72-3.13-.02-11.77,0-23.56,0-35.33,0-.99-.07-1.98.34-2.92.16-.22.27-.56.52-.61,3.58-.65,3.22-3.33,3.22-5.98-.04-21.85-.04-43.67.02-65.52,0-1.62-.74-3.69,1.55-4.61l-.02.02Z"/>
    <path class="cls-76" d="M510.07,482.25c1.96,1.12,3.92,2.27,5.87,3.4,0,1.78-2.83,1.26-2.52,2.72.25,1.15,2.56.22,3.15,1.75.02.07-.05.16-.07.25-87.46-1.89-174.91-2.34-262.37-.52.09-1.44,1.28-1.37,2.18-1.44,9.74-.61,19.4-2.29,29.23-2.03,4.66.13,9.29-.59,13.95-.85.27,0,.54-.09.81-.02-.29-.29-.65-.11-.97-.16-6.88-.56-13.79-.99-20.7-.94-5.53.02-10.82-1.6-16.29-1.87-.77-.04-2.16-.09-1.48-1.69,2.03-1.1,4.23-.79,6.34-.54,2.43.31,4.84.41,7.27.36,9.61-.2,19.24.31,28.82.7,17.35.68,34.69-.22,52.02.54,8.55.38,17.03-.31,25.56-.04,20.45.65,40.95.72,61.4.34,14.36-.27,28.73-.38,43.09-1.1,5.74-.29,11.5-.2,17.21-.92,2.75-.34,5.36.11,7.54,2.05l-.04.02Z"/>
    <path class="cls-107" d="M205.71,474.73c-1.35-4.16-3.17-8.24-3.87-12.49-.47-2.97-2.09-2.63-3.62-2.21-16.99,4.7-33.34-4.05-50.27-2.5-1.46.13-3.42-5.2-5.15-7.99-.11-.34-.34-.85-.14-1.03,2.43-2.27,1.35-5.26,1.55-7.94.27-3.51,1.37-4.66,4.93-4.25,2.88.34,5.98-.61,8.62,1.37.18.13.56.22.59-.18,0-.27-.32-.38-.59-.47-2.52-.81-5.15-.52-7.74-.74-1.44-1.06-.36-1.62.47-2.07.97-.5,2.07-.5,3.13-.38,1.33.13,2.63.13,3.98-.07,3.31-.52,3.31-.47,4.41,2.86.49,3.49.18,7,.27,10.51.07,3.15.2,3.31,3.42,3.33,9.81.04,19.6,0,29.41,0,.83-.04,1.57.16,2.23.72.56.63.5,1.4.38,2.14-.07.54-.09,1.08-.05,1.62.11,1.17.77,1.71,1.94,1.82,1.12.11,1.64-.52,1.94-1.46.74-2.5,1.39-5,2.39-7.43,5.92-14.51,20.68-22.09,35.91-18.38.88.2,1.73.45,2.61.7,1.15.31,1.91.02,2.25-1.19.74-2.68,2.68-3.89,5.33-4.19,1.08-.11,2.05-.59,3.04-1.06,1.48-.7,3.02-1.12,4.68-.85,1.12,1.28,1.24,4.66.09,5.51s-2.2.29-3.17-.47c-.2-.16-.5-.43-.67-.22-.16.18.11.47.27.68,1.28,1.53,2.7,1.84,4.5.74,2.45-1.49,2.97-1.4,4.21,1.01,3.02,5.9,6.66,11.54,7.45,18.34.13,1.24.43,2.52-.5,3.6-1.69.25-1.8-1.12-2.14-2.16-1.78-5.31-5.02-9.65-8.82-13.68-1.6-1.71-3.64-1.75-5.69-1.87-1.01-.07-1.28.47-.79,1.37.22.41.52.72.83,1.06,6.89,7.2,10.26,15.66,9.22,25.72-.2,1.91-.11,3.78,1.15,5.38.41.52,0,1.75.88,1.6.81-.16,1.24-1.22,1.6-2.05.41-.94-.25-1.26-.97-1.55-.9-.36-2.09-.63-1.89-1.89.2-1.37,1.39-1.84,2.61-1.87,1.89-.04,3.1-.47,2.84-2.77-.09-.83.25-1.96,1.64-1.15,1.64,3.15,1.03,6.39.43,9.63-2.66,4.95-6.77,8.37-11.66,10.98-1.01.54-2.05,1.08-2.88,1.89-5.08,5.56-11.32,8.91-18.88,9.68h-9.7c-5.6-.45-10.53-2.54-14.89-6.05-1.06-.85-2.09-1.71-2.39-3.15-.54-.7-1.1-1.42-1.64-2.12-.27-.36-.43-.79-.54-1.24-.18-.68-.67-1.37,0-2,.67-.65,1.51-.43,2.3-.2,1.87.54,3.33,1.73,4.79,2.93,6.64,5.33,14.15,7.22,22.52,5.47,11.03-2.29,19.78-12.51,20.79-23.74.92-10.15-3.31-17.96-10.35-24.66-1.58-1.49-3.83-1.44-5.74-2.18-11.79-4.59-23.2-1.84-31.07,7.97-5.81,7.22-6.75,15.68-4.32,24.53.65,2.36,1.15,4.72.77,7.18-.18,1.12-.41,2.54-2.2,1.6h-.02Z"/>
    <path class="cls-97" d="M205.71,474.73c3.92-4.28.11-8.48-.36-12.58-1.24-10.73,1.84-19.69,10.3-26.21,8.12-6.28,17.28-6.84,27.02-3.51,10.78,3.69,15.64,11.79,16.72,22.19,1.31,12.65-4,22.72-15.5,28.28-10.6,5.13-20.92,3.38-30.06-4.37-1.37-1.15-3.31-1.64-4.97-2.45-.02.99-.05,2-.09,2.99-1.01-1.44-2.03-2.9-3.06-4.34Z"/>
    <path class="cls-78" d="M281.15,423.45c.76-3.01,2.59-.41,3.62-.41,46.46-.2,92.95-.18,139.41-.18,7.13-.63,14.24-1.66,21.42-.41,1.67.29,3.33-.2,5-.29,18.16-.81,36.29-.09,54.45-.29,7.83-.09,15.66.29,23.47-.11,5.6-.29,11.23-.2,16.81-.47,6.35-.31,12.69-.97,19.04-1.03,6.57-.07,13.1-.5,19.62-1.08.4-.04.88.18,1.19-.25-.45.02-.9-.07-1.35-.11-9.4-.9-18.83-.83-28.28-.79-1.53,0-3.06.11-4.57-.13-.94-.16-2.2-.27-2.18-1.53,0-1.15,1.15-1.49,2.12-1.78.61-.18,1.24-.22,1.87-.22,6.55-.11,13.12.11,19.67-.2.18,0,.36.07.54.09-.16-.04-.31-.07-.47-.09-2.79-.27-5.56.41-8.32.02-1.1-.16-2.68.25-2.81-1.66.92-.9,2.14-.92,3.29-.9,11.48.31,22.95-.7,34.43-.61,7.36.07,14.65.79,21.96,1.24.81.04,1.6.29,2.36-.07,2.32.65,5.54.54,6.77,2.05,5.83,7.13-1.78,7.11-5.33,9.25-1.28.76-2.41,1.75-3.62,2.66-.83-3.28-3.78-2.59-5.83-2.59-21.98-.11-43.96-.04-65.95,0-3.06,1.87-6.41.94-9.63.83-1.24-.04-2.68-.04-3.85-.83h-2.72c-.92.88-2.07,1.01-3.24.99-10.6,0-21.22.07-31.81,0-1.35,0-2.7.04-3.78-.99h-69.1c-.68.74-1.53.88-2.45.79-13.75.36-27.47.34-41.22.04-7.31-.43-14.62.54-21.96.04-6.62,0-13.23.25-19.84.02-9.22-.31-18.45-.22-27.68,0-1.62.04-3.22.13-4.81,0-3.13,1.19-6.28-.34-9.43,0-5.31-.09-10.64.54-15.95-.38-.29-.16-.56-.36-.81-.61h0Z"/>
    <path class="cls-135" d="M598.56,450.99c3.19-3.42-2.07-10.31,3.46-11.66,4.61-1.12,11.95-4.57,13.88,4.68.13,2.12.29,4.21.43,6.32,2.52-.47,4.79-.41,7.56-1.69,5.92-2.77,12.49.88,18.79,2.14,1.42.29,5.13,1.01,6.62-3.01.97-2.63,3.06-.81,3.11,1.66.02,1.26-.61,2.56-.54,3.82.97,16.76-8.71,12.91-18.05,9.22-8.26-3.26-17.35.54-25.83-3.98-3.92-2.09-6.48-4.79-9.47-7.49l.05-.02Z"/>
    <path class="cls-66" d="M623.38,412.18c-20.68.16-41.38.34-62.06.5-1.28,1.37-2.99,1.06-4.57,1.06-23.26.02-46.53,0-69.8,0h-27.23c-1.98,0-3.96-.11-5.85.65-.5.2-1.08.29-1.6.18-4.79-1.17-9.81-.7-14.6-1.87-39.78-.02-79.56-.04-119.34-.09.43-2.56,2.56-2.5,4.41-2.9h278.89c1.15,0,2.34-.2,3.46.2,6.07.76,12.17,1.51,18.25,2.27h.02Z"/>
    <path class="cls-110" d="M176.35,327.81c1.08-1.19,2.07-2.5,3.24-3.58,1.28-1.17,2.74-2.16,4.12-3.24-.59,1.28-1.17,2.54-1.76,3.83-.31.67-.63,1.37-.92,2.07.61-.5,1.24-.94,1.8-1.48,5.49-5.22,12.62-4.14,19.1-4.36,12.17-.38,24.34.14,36.54.29,2.92-1.1,5.98-.65,9-.63,1.37,0,2.32.81,2.7,2.18-.27,3.15-.45,6.32-.41,9.5,0,.92.31,1.98-.7,2.66-1.44-.54-1.22-1.84-1.28-2.92-.14-2.25,0-4.5-.09-6.73-.05-1.55-.79-2.27-2.32-2.32-1.08-.02-2.16-.07-3.24-.07h-42.59c-2.7,0-5.38.22-8.05.58-4.93.67-8.46,3.24-10.78,7.58-4.23,7.94-7.61,16.27-10.58,24.75-.59,1.69-1.12,3.42-2.2,4.91-2.5,4.52-3.62,9.54-4.77,14.49-1.8,7.72-1.87,15.64-1.69,23.53.05,1.62.07,3.24-.07,4.84-.05.27-.13.54-.27.79-1.75,1.82-4.25,1.73-6.43,2.23-2.32.52-1.51,1.6-.56,2.27,1.78,1.28,2.59,3.13,3.64,4.88.32.54.61,1.1.52,1.75-1.71,2.9-3.49,5.74-7.13,6.55-.97.22-.88,1.01-.95,1.69-.18,1.51-.05,3.04-.05,4.54,0,1.12.23,2.36-.83,3.24-5.49-13.07-3.49-26.55-2.14-39.98,5.24-1.73,6.57-6.08,7.34-10.84.09-.61.23-1.24.45-1.82,3.06-8.59,6.01-17.23,9.92-25.52,2.63-5.58,4.93-11.34,7.13-17.1,1.42-2.83,2.86-5.65,4.27-8.48l.02-.07Z"/>
    <path class="cls-73" d="M282.7,347.38c-.34-8.03-.79-16.06-.99-24.1-.09-3.87.31-7.74.47-11.61,9.7,2.66,10.33,9.88,10.22,18.38-.34,26.44-.09,52.9-.07,79.34-1.8-.7-1.37-2.34-1.37-3.67-.07-8.17-.02-16.34-.04-24.5,0-.9,0-1.8-.04-2.7-.04-1.12-.36-1.42-1.44-.79-1.8,1.06-2.36.18-2.41-1.62-.07-2.95.07-5.92.02-8.86,0-.36.16-.7.11-1.06-.02.38-.13.77-.13,1.15.09,2.5-.11,5.02,0,7.52.02.63.09,1.26-.09,1.87-.34,1.03-1.03,1.71-2.16,1.71-1.26,0-1.66-.94-1.73-2-.16-2.14,0-4.3,0-6.44.09-7.7-.29-15.37.2-23.06,0-.07.04-.34-.07-.22-.18.18-.29.45-.5.61l.02.07Z"/>
    <path class="cls-64" d="M282.7,347.38c.16-1.62.31-3.24.47-4.86.2,1.62.59,3.22.59,4.84.07,9.43,0,18.86.09,28.28,0,.77.68,1.53,1.03,2.32.52-.92,1.46-1.82,1.51-2.77.18-4.09.09-8.19.16-12.28,0-.31.34-.63.54-.94.16.38.47.77.47,1.17.04,2.88-.27,5.81.25,8.57.11.65-3.44,6.03,2.32,3.24.04,0,1.64,2.14,1.66,3.31.29,10.37.41,20.77.56,31.14l10.87.47c6.12-.25,12.24-.47,18.36.11-1.08.88-2.16,1.73-3.22,2.61-10.8.02-21.62-.59-32.35.27-10.75.85-3.89-6.82-3.94-8.91-.36-18.86.29-37.71.65-56.59l-.02.02Z"/>
    <path class="cls-47" d="M281.65,306.34c-.18,15.21-.41,30.4-.54,45.61-.07,8.08.07,16.16-.07,24.23-.04,2.97,1.96,7.56-4.25,6.8-1.53-2.63-.9-5.58-.99-8.37-.22-7.27-.2-14.53-.04-21.78.16-7.27-.54-14.51-.59-21.76,0-1.98.07-3.94.34-5.89.43-3.13-.02-3.56-3.17-4.43-1.8-.49-3.58.2-5.33-.36-12.42-3.28-.09-4.39.56-6.5,8.3,5.56,8.64,1.17,8.3-6.01-.18-3.78,3.51-1.89,5.72-1.53h.07Z"/>
    <path class="cls-89" d="M575.34,449.46c10.82,3.47,9.45-3.91,9.2-10.33,0-.31.11-.65.2-.97,0,0,.29.04.45.09,1.42,1.94.74,4.16.79,6.28.11,4.66.86,5.22,5.51,3.87,1.55-3.47-2.81-10.44,2.32-10.42,10.53.04,2.43,8.59,4.21,12.94l-4.97-.59c1.33,1.55,2.63,3.15,4.03,4.63,2.7,2.88,5.54,5.65,8.17,8.57,1.26,1.4,1.35,3.08-.45,4.12-1.87,1.06-2.95-.07-4.05-1.71-1.57-2.32-3.6-4.34-5.42-6.48-5.33-.47-10.75-1.84-15.95-1.24-7.49.85-11.05-1.73-11.5-9.04,2.54-1.15,5.04-1.53,7.47.29v-.02Z"/>
    <path class="cls-59" d="M536.89,490.35c9.02-1.87,16.79-5.69,21.67-14,.72-3.53,2.61-6.64,3.71-10.06.16-.52.58-.94,1.21-.92.76.02,1.1.63,1.21,1.24.27,1.84.74,3.74-.58,5.42.79,3.47-2,7.76,2.63,10.35,1.71.94,2.18.56,2.16-1.19,7,1.12,14.02,2.23,21.01,3.38.45.07.86.56,1.26.83-.65.38-1.26.94-1.96,1.08-17.28,3.65-34.76,4.46-52.33,3.82v.04Z"/>
    <path class="cls-77" d="M237.37,490.41c6.95-1.94,13.48-4.63,18.36-10.26,1.64.27,3.47-.27,4.84,1.12,13.5,1.08,27,2.12,40.48,3.24.97.09,1.91.63,2.86.94-.79.22-1.55.59-2.34.65-15.82,1.28-31.66,2.52-47.47,3.78-5.58.18-11.16.36-16.74.54l.02-.02Z"/>
    <path class="cls-38" d="M210.39,481.21c4.77,4.91,10.78,7.49,17.26,9.2-15.44-1.08-30.87-2.12-46.28-3.28-.77-.07-1.44-.99-2.16-1.51.7-.43,1.37-1.15,2.14-1.24,9.67-1.1,19.37-2.14,29.05-3.17Z"/>
    <path class="cls-79" d="M149.37,431.58c-3.13-8.55,4.52-11.45,8.53-16.27.23-2.21,1.17-4.23,1.62-6.39.2-1.01.72-2.77,2.36-.97.45,1.01.45,2.09.45,3.15,0,7.13.02,14.27,0,21.4,0,1.4.18,2.9-1.1,3.96-.43-.72-.9-2.07-1.26-2.05-3.35.29-6.71.81-10.06,1.26.07.04.14.13.2.16.07.04.18.07.25.09-.02,1.19-.97.72-1.53.74-3.89.18-3.96.18-4.05,4.05-.05,2.12-.79,2.36-2.36,1.15-.9-4.88.92-7.72,6.05-8.19.72-.07,1.35-.74,2.05-1.12-.38-.31-.79-.65-1.17-.97h.02Z"/>
    <path class="cls-88" d="M321.56,410.02c-6.12-.04-12.24-.07-18.36-.11,21.08-.16,42.16-.45,63.27-.47,78.61-.04,157.21-.02,235.82,0,.94,0,1.89.31,2.83.47-94.52.04-189.05.07-283.57.11h0Z"/>
    <path class="cls-130" d="M155.78,379.17c-1.62,4.97-.34,11.97-8.53,12.42,4.03-7.7-1.17-18.65,8.59-24.34,1.01,1.06,1.06,1.1.38,2.16-.77,1.22-1.8,2.18-2.7,3.28-.83,1.03-.79,1.44.65,1.46.77,0,1.64.07,1.91,1.08-.18,1.89-1.64,1.46-2.81,1.53-.2,0-.5-.25-.61.09-.07.16,0,.09.2-.09.27-.25-.09.07.25,0,2-.45,2.63.63,2.68,2.39l-.02.02Z"/>
    <path class="cls-135" d="M626.62,445.53c-8.01-1.26-1.75-12.51-9.68-13.84,11.63,2.5,14,5.9,9.68,13.84Z"/>
    <path class="cls-49" d="M155.85,374.9c-4.97-.02-4.93,0-3.53-2.05,1.24-1.82,2.34-3.73,3.51-5.6,2.84-4.48,5.67-8.98,8.51-13.45.41,1.8-.77,3.17-1.37,4.68-1.98,5-3.98,9.99-5.87,15.03-.23.61-.11,1.55-1.21,1.42l-.02-.02Z"/>
    <path class="cls-104" d="M155.85,374.9c2.81-7.04,5.65-14.09,8.46-21.13,2.59-5.83,5.15-11.66,7.74-17.5-5.42,14.29-10.87,28.58-16.29,42.88-1.26-1.44-3.89-2.92.09-4.25Z"/>
    <path class="cls-70" d="M142.44,441.86c2.79-1.78,2.74-7.31,7.92-5.94.18,0,.38-.09.54-.04,3.02,1.03,7.76-2.43,8.98,2.36.7,2.7-1.78.54-2.79.22-1.24-.41-2.38-1.19-3.64-1.44-6.41-1.22-9.86.88-8.3,7.97.52,2.32-.56,3.56-2.32,4.57-.11-2.56-.23-5.13-.36-7.69h-.02Z"/>
    <path class="cls-20" d="M516.5,490.39c-1.71-.72-3.42-1.42-5.11-2.14,1.53-.88,3.04-1.73,4.57-2.61,4.21,1.55,8.42,3.1,12.6,4.68-4.03.02-8.03.04-12.06.07Z"/>
    <path class="cls-110" d="M193.09,312.26c1.82.36,3.67.63,5.45,1.12,1.87.52,3.69,1.22,5.53,1.84-1.89.65-3.8,1.82-5.69,1.8-1.89-.05-5.53,2.16-5.31-2.59v-2.16l.02-.02Z"/>
    <path class="cls-132" d="M423.06,423.54h2.2c2.83,5.92,8.21,1.1,12.11,2.79,2.3.99,4.88,1.31,7.33,1.94-1.24.61-2.56,1.1-3.69,1.89-.34.22-.43,1.37-.16,1.82.4.7,1.26,1.69,1.85,1.64,1.96-.2,4.45,1.31,5.74-1.46,4.12-8.84,11.88-3.13,17.84-4.14,4.59-.76,9.36.88,11.09,6.37.18.54-.09,1.22-.13,1.84-10.04-.97-16.94,11.14-28.21,6.34-5.36-2.27-13.52-5.47-17.06-3.15-10.51,6.88-22.72-.16-32.67,6.12-.68.97-1.89.9-2.79,1.44-.72.09-1.44-.11-2.18-.07h-.94c-16.04,1.06-32.13.25-48.17.61-3.17.07-6.41-.27-9.59.52-3.96.97-7.99,1.06-12.04,1.24-.74-.22-1.42,0-2.09.27-.52.18-1.03.38-1.55.43-3.53.29-5.72,1.84-5.74,5.69,0,.92-.61,1.66-1.35,2.25-1.96,1.44-4.32,1.19-6.5,1.35-6.64.5-13.28.5-19.91,0-3.26-1.73-4.39-6.05-2.63-10.12,1.53-1.42,1.24-3.26,1.15-5.04-.11-2.23-.11-3.74,2.9-4.68,2.25-.7,3.82-.85,6.1-.45,3.17.56,6.59.99,9.74-.68,1.33-.7,2.66-.47,3.74.56.47.43.79.9,1.53.85,1.55-.09,1.94,1.01,2.09,2.25.11.9.22,1.82.04,2.68-.5,2.41,1.44,1.31,2.27,1.53.81.2.43-.56.29-.9-.41-1.03-.56-2.09-.54-3.17.07-2.36-.34-4.3-3.26-4.61-.92-.11-1.71-.85-1.71-1.82-.02-2.5-.18-5.06,1.08-7.36,1.42-2.61,4.16-2.79,6.57-2.88,6.37-.25,12.74-.11,19.12-.11.36,0-.04-.13.27,0,5.92,2.81,11.45-.81,17.19-.99.81-.02,1.64-.36,2.38.02,1.82.97,3.26.38,4.61-.9h22.16c.88.85.88,1.94.72,3.01-.16.92-.52,1.78-1.55,1.98-.94.2-1.44-.5-1.94-1.15-1.28-1.75-4.14-2.52-6.12-1.71-1.12.45-1.33,1.46-1.4,2.41-.07.94.65.56,1.1.34,2.52-1.28,4.95-1.4,7.36.31.79.56,1.46.22,2.09-.47,2.63-2.84,5.24-3.51,8.57-1.91,1.55.74,2.79.83,4.23-.13s3.15-1.37,4.86-1.4c4.75-.07,9.5-.36,14.24.29,3.24.45,6.46.41,9.31-1.55l.02.07Z"/>
    <path class="cls-97" d="M284.35,449.46c-.88,3.35-.83,6.55,1.75,9.25.43.76.27,1.37-.54,1.73-.63.27-1.22.07-1.71-.38-.85-.74-1.12-1.8-1.37-2.84-.34-1.51-1.22-2-2.72-1.78s-1.87.9-1.62,2.36c.22,1.35-.13,2.52-1.94,2.38-.13-.41-.25-.79-.38-1.19-.41.61-1.1,1.19-1.15,1.84-.16,1.75-.41,3.71,2.12,4.19-.2,3.28-1.46,6.16-4.79,6.88-3.13.68-.68-2.95-2.25-3.76v-10.17c-1.44-1.98-1.44-3.94,0-5.92.29-8.64-4.28-15.62-8.35-22.57-.99-1.69-5.31,3.87-7.78-.41-.52-.88-.56-2.05-.83-3.08.77.41,1.51.85,2.27,1.24.67.34,1.37.63,2.07.94.25-1.57.52-3.17.77-4.75-1.75-2.12-3.83-3.47-6.73-2.9-7.45-.02-14.92-.18-22.34.13-13.07.56-24.91,11.03-28.35,24.62-.36,1.4-.52,2.84-.97,4.19-.34.99-.56,2.16-2.05,2.05-.54-.18-1.08-.38-1.64-.56-1.06-.94-.77-2.14-.56-3.26,2.7-13.77,9.94-24.07,22.95-29.95,3.31-1.51,6.82-2.27,10.46-2.25h13.75c2.32,0,4.66.11,6.82-1.01,3.26.25,6.55-.22,9.79.25,2.54,5.42,5.27,10.78,7.54,16.31,1.19,2.93,2.72,4.39,5.89,3.69.31,1.6-2.5.92-1.96,2.66.54,1.71.99,3.65,2.29,4.84,2.38,2.18,2.9,4.81,2.7,7.81-.11,1.64.27,2.45,2.12,1.37,1.6-.92,3.62-.97,5.06-2.41.56-.56,1.33-.56,1.69.41v.04Z"/>
    <path class="cls-119" d="M276.22,460.22c3.89-.5-1.98-4.68,2.23-5.56,3.8-.81,5,.56,5.33,3.91.04.54.83.99,1.28,1.49.34-.45.7-.9,1.03-1.35,9.02-.47,18.2,1.17,27.07-1.73,3.31-.85,6.68-1.15,10.08-.99,3.04-.92,6.23-.79,9.34-1.03,13.68-1.1,27.36-2.27,41.06-3.17,5.53-.36,11.12-.74,16.67-.72q4.7,0,6.3-4.41c.88-.36,1.78-.72,2.66-1.08,5.26-.31,10.57-1.22,15.77-.81,8.06.61,16.02,2.12,24.03,3.28.27.04.45.59.68.9-.86.07-1.71.13-2.54.22-9.25.9-19.39-2.61-27.61,2.86-14.09,9.38-28.75-.88-43.29,2.79-14.2,3.58-29.43,2.93-44.21,4.19-14.47,1.24-28.94,2.61-43.4,3.85-1.57.13-3.94.41-2.52-2.63h.05Z"/>
    <path class="cls-36" d="M494.38,423.52h38.86c-5.49,1.89-10.87,4.19-16.49,5.53-2.77.68-5.94,5.65-8.93.18-.38,1.53-.45,3.26-1.21,4.54-2.83,4.72-5.02,10.33-9.05,13.75-9.25,7.85-18.52-2.45-28.04-1.4-2.14.22-4.41-.81-6.62-1.28.76-.65,1.53-1.31,2.3-1.96,3.26-.97,6.32.47,9.45.85,3.94.5,7.81,1.53,11.83,1.62.72,0,1.39.25,1.96.76,2.12-.63,5.74.36,4.03-4.19-.9-2.38-.16-4.19,2.86-4.46,5.49-.5,9.47-2.5,9.05-9.09-.18-2.59-1.67-3.4-7.27-2.68-2.07.27-2.9-.09-2.68-2.21h-.04Z"/>
    <path class="cls-129" d="M543.07,476.44c-10.55,5.4-19.89,3.24-25.9-6.5-6.64-10.73-3.85-20.43,6.93-27.45.7,1.03-.4,1.75-.47,2.66-2.07,2.45-4.7,4.48-5.76,7.69-.09.25-.29.68-.18.74.45.2.47-.31.58-.56,1.08-2.32,2.61-4.28,4.52-5.96,5.74-5.04,15.1-5.04,20.79.04.47.43.92.85,1.24,1.42.34.63.76,1.37.11,1.98-.52.5-1.19.18-1.75-.13-1.33-.76-2.5-1.73-3.82-2.5-6.98-4.03-16.29-.65-18.58,6.77-.72,2.32-.58,4.79-.56,7.2,0,1.84,1.35,2.84,3.01,3.38.76.38,1.31.97,1.53,1.82.7,2.99,1.87,4,5.29,4.25,1.8.13,3.58.16,5.38.36,2,.22,3.71-.43,5-2.09,1.51-1.96,3.4-3.33,5.81-4.16,3.29-1.15,4.1-2.79,3.82-6.23-.23-3.26-.54-6.46-2.5-9.25-.36-.5-.63-1.1-.2-1.75,1.31-.56,1.8.52,2.34,1.28,5.31,7.63,3.17,19.53-4.43,25.09-.76.56-1.8.9-2.14,1.94l-.05-.02Z"/>
    <path class="cls-63" d="M522.44,432.66c-7.99,5.6-16.81,10.49-17.55,21.96-.11,1.66-1.31,3.26-2.09,4.86-.07.13-1.17-.02-1.19-.13-.18-1.33-.54-2.75-.27-4,3.58-17.5,18.54-28.66,36.02-26.96,15.86,1.55,29.16,16.69,29.34,33.44-.05,1.91-1.55,1.28-2.54,1.42-1.06.16-1.71-.45-1.91-1.46-.29-1.49-.5-3.01-.65-4.52-1.46-13.68-11.38-23.85-25.06-25.69-3.69-2.54-7.02.18-10.51.72-1.19.18-2.34.81-3.6.41l.02-.02Z"/>
    <path class="cls-121" d="M575.34,449.46c-2.5-.09-5-.2-7.47-.29-.36-1.84-1.39-5.13-.94-5.35,5.29-2.54,9.68-9.36,16.33-5.65,1.67.92,1.26,6.97.36,10.26-.29,1.01-5.38.72-8.26,1.01l-.02.02Z"/>
    <path class="cls-89" d="M522.44,432.66c22.25-6.01,38.38,5.31,40.55,28.28.27,2.93,2.36,1.03,3.71.85l-.4,11.34-2.18-1.08c-.34-1.94-.68-3.87-1.01-5.81-1.51,3.38-3.01,6.73-4.52,10.1,1.12-7.9,3.8-15.68,1.21-23.83-5-15.71-18.23-23.4-34.04-19.69-1.04.25-2.2-.11-3.31-.2v.02Z"/>
    <path class="cls-111" d="M591.49,448.41c-.79,3.33-3.38,1.33-4.86,1.26-2.97-.13-1.04-2.75-1.26-4.19-.38-2.36-.16-4.81-.18-7.22,11.77-2.61,3.08,7.47,6.3,10.15Z"/>
    <path class="cls-83" d="M543.07,476.44c7.67-7.13,12.22-15.1,6.77-25.63-.52-1.01-1.67-1.71-2.5-2.56-1.21.02-1.91-.9-2.72-1.57-5.47-4.41-11.5-5.09-18-2.7-.99.36-1.91,1.08-3.06.63.18-.7.36-1.4.54-2.09,10.49-4.84,19.8-3.01,25.76,6.86,6.39,10.6,3.71,20.12-6.77,27.09l-.02-.02Z"/>
    <path class="cls-57" d="M396.22,457.02c-2.25,5.76-7.18,2-10.46,2.27-9.25.76-18.63,0-27.97-.2,12.8-.7,25.63-1.37,38.43-2.07Z"/>
    <path class="cls-13" d="M488.42,446.13c-7.74-1.08-15.48-2.16-23.22-3.24,7.58-2.84,14.54,2.16,21.94,1.84.4,0,.86.9,1.28,1.4Z"/>
    <path class="cls-36" d="M535.94,423.5h13.48c-4.5,6.68-8.98,2.34-13.48,0Z"/>
    <path class="cls-119" d="M284.35,449.46c-1.35.7-2.68,1.89-4.05,1.98-11.54.65-5.42-11.86-11.38-15.44,1.17-.41,2.36-.81,3.53-1.22l-3.28-9.68c-.43-.88-1.35-1.73-.18-2.72,1.42-.94,3.01-1.49,4.61-2,.94-.31,1.91-.47,2.72.36.34,1.22-.02,2.47.22,3.69.04.07.07.22.11.22,3.6.27,3.26,2.84,3.08,5.31-.16,2.14.65,3.13,2.97,2.95,2.77-.2,5.56-.2,8.3.43,1.24.29,1.78-.09,1.71-1.51-.27-5.62.72-6.53,6.25-5.9.11,0,.18.16.31.13-.13-.11-.29-.22-.41-.36-.52-.65-.99-1.31-.54-2.18h8.08c1.17,1.42,2.77,1.1,4.25,1.01,7.34-.43,14.69-.27,22.03-.56,2.38-.09,4.81.07,7.18-.45h19.44c-2.43,4.97-7.16,1.89-10.37,2.21-11.88,1.1-23.92.72-35.89,1.03-3.1.09-3.98,2.5-3.89,5.13.07,2.09-1.91,4.68,2.75,5.62,1.89.38,2.66,6.23,3.94,9.59-1.15-.07-2.29-.22-3.44-.2-5,.11-.54-4.57-2.29-4.97-2.34-.52-3.13-3.96-6.77-2.41-3.13,1.33-7.18.45-10.82.54-3.17.09-7-1.1-6.77,4.48.07,1.57,1.64,4.12-1.49,4.91h.09Z"/>
    <path class="cls-4" d="M276.31,424.98c-.04-1.4-.09-2.81-.13-4.21-1.01-1.08-1.01-2.43-1.01-3.78,0-10.55-.04-21.08,0-31.64.36-1.69.13-3.4.02-5.08-.11-1.8-1.22-2.2-2.79-1.22-1.4.88-1.62,2.23-1.71,3.73-.29,5.47-.09,10.96-.18,16.42,0,1.12.31,2.38-.81,3.24-4.39-5.11.18-10.42-.16-15.7-1.44-22.07-1.78-44.23-2.52-66.35,6.75-2.14,9.88-1.46,9.52,7.38-.74,18.38.07,36.81.22,55.22,0,12.98,0,25.96.02,38.97,0,.85.59,2.43.85,2.41,1.17-.04,2.32-.56,3.47-.9.18,0,.38,0,.56.02.63,1.19.09,2.18-1.03,2.05-1.44-.18-3.01.43-4.34-.54l.02-.02Z"/>
    <path class="cls-58" d="M269.74,402.44c.04-5.92.25-11.84.07-17.73-.11-3.49.31-7.61,3.96-7.47,4.12.18,2.05,4.68,2.38,7.4-4.21,1.19-4.48,1.35-4.32,5.87.25,8.1-.36,16.07-2.34,23.92-.7,2.75-.25,5.62-.29,8.44v2.21c-7.33-7.74,1.53-15.1.54-22.68v.04Z"/>
    <path class="cls-69" d="M259.03,414.77c-3.42.04-6.84.07-10.24.11-1.39-1.12-1.12-2.75-1.15-4.23-.16-9.5.47-18.97.27-28.46-.02-1.17.05-2.34-.22-3.49-.14-13.41-.05-26.8-.05-40.21,0-1.24-.02-2.56,1.15-3.44.31-3.96.63-7.92.92-11.88.11.14.36.27.34.38-.02,5.04.14,10.08.22,15.1.02,1.53.79,3.4-.5,4.88-.18,23.06-.72,46.15-.18,69.19.09,3.85,6.44-.07,9.41,2l.02.04Z"/>
    <path class="cls-139" d="M249.81,343.58c-.02-6.8-.05-13.59-.07-20.39-3.24-3.78-7.58-.79-11.25-1.84,3.85-2.79,8.17-1.22,12.28-1.24-.11,2.25-.38,4.5-.29,6.75.2,4.95.63,9.9.81,14.85,0,.61-.97,1.26-1.48,1.89v-.02Z"/>
    <path class="cls-88" d="M437.68,412.7c41.22,0,82.42,0,123.64-.02,4.16.34,8.32.68,12.46,1.06,1.44.13,2.9.34,4.34.52-1.51.2-3.01.52-4.52.56-7.36.22-14.69.36-22.05.61-.74.02-1.49.65-2.23,1.01.72.18,1.44.52,2.16.54,11.56.38,23.11.72,34.67,1.12.92.02,1.82.47,2.75.74-.99.45-1.94,1.24-2.95,1.28-13.43.65-26.84,1.51-40.27,1.69-40.05.52-80.08.76-120.13,1.12-.45,0-.9-.02-1.35-.04,7.06-.5,13.73-4.28,21.4-1.31,2.56.99,6.73-2.12,10.17-3.38-.47-.41-.92-1.06-1.44-1.15-.76-.11-1.57.34-2.36.34-16.36-.11-32.69-.34-49.05-.36-3.85,0-6.71,4.68-11.14,2.66-.29-.13-.59-.22-.88-.36.16-.07.34-.11.5-.18,1.31-.52,2.61-1.06,3.91-1.57-1.62-.2-3.24-.56-4.86-.56-7.74-.07-15.46,0-23.2-.04-1.19,0-2.36-.29-3.56-.45,1.15-.2,2.27-.56,3.42-.59,24.23-.38,48.46-.72,72.72-1.15.56,0,1.12-.65,1.69-1.01-1.26-.36-2.54-.72-3.8-1.08h-.04Z"/>
    <path class="cls-103" d="M248.62,378.68c.07,12.06.11,24.14.18,36.2-.74,3.22-3.31,1.44-4.84,1.44-30.4.02-43.58,8.84-47.95,32.29-.13.79-.13,1.6-.2,2.41-11.23.22-22.48.68-33.64,0-.61-.04-.65-9.47-.97-14.53,0-9.7,0-19.42-.02-29.12-.95-.81-1.28-1.71-.45-2.79h-.02c1.24-1.12.02-2.79.85-4.03.74-1.37,3.15-.52,3.35-2.16.16-1.28-1.4-2.21-1.94-3.44-.43-.99-.99-2.05-.67-3.11.65-2.18.7-4.41.9-6.64.07-.77.02-1.98,1.48-1.6.81.99.65,2.18.7,3.33.05,1.17-.05,2.34.2,3.49.63,2.99,2.27,3.62,4.81,1.91,1.22-.81,2.02-1.98,2.84-3.17,1.24-1.84,1.87-1.82,2.99.07.65,1.1,1.46,1.94,2.74,1.71,1.62-.29,1.15-1.78,1.3-2.83.09-.61,0-1.26.05-1.87.13-4.28,2.97-5.98,7.11-4.32.9,3.64.31,7.29-.23,10.87-.36,2.41-3.29,3.47-6.77,2.72-1.76-.36-2.95.04-3.98,1.37-.31.41-.88.76-.54,1.37.25.45.77.47,1.22.41,7.6-.83,15.19.47,22.84-.13,7.4-.59,14.85-1.03,22.32-.79.99.02,1.98.07,2.81.72,1.01,3.08,3.26,3.82,6.28,3.62,2.86-.2,5.74-.13,8.59,0,2.68.11,4.55-.7,5.2-3.49.11-.52.41-.99.79-1.4,1.24-.72,1.12-1.94,1.15-3.08.09-4-.05-8.03.09-12.04.05-1.24-.29-2.77,1.42-3.35v-.04Z"/>
    <path class="cls-100" d="M197.45,451.56c3.06-9.41,5.83-18.79,14.29-25.36,12.19-9.45,26.23-5.74,39.67-6.48.54.31,1.12.59,1.55,1.06,1.62,1.78,1.19,3.28-1.28,3.76-5.53,1.08-11.2,2.5-16.78,1.89-10.33-1.1-17.86,2.9-23.89,10.89-2.54,3.38-5.11,6.66-6.7,10.64-.94,2.36-3.58,3.65-4.25,6.3-.16.65-1.03.94-1.82.88-1.35-.09-.81-1.4-1.33-2.03.18-.54.36-1.06.56-1.6v.04Z"/>
    <path class="cls-30" d="M269.74,452.1v5.92c.18,3.42-.61,5.87-4.91,5.04-.31-.07-.81.61-1.1,1.01-.07.09.25.7.47.76,1.42.52,4.5-.22,2.86,2.75-.65,1.19-1.19,4.95-4.03,2.84-1.22-.9-1.82-3.6-1.58-5.31,1.53-11.18-1.53-20.68-9.61-28.62-.61-.59-.41-2-.58-3.04,2.45.43,5.51.09,7.25,1.44,5.6,4.37,8.62,10.69,11.2,17.17l.02.05Z"/>
    <path class="cls-30" d="M196.89,453.15c5.33,3.49,2.16-5.99,6.39-4.19,7.54-22.39,25.81-24.8,45.56-24.55,3.56.04,5.92-.83,2.56-4.68,3.08-.34,5.85-.18,6.48,3.74-4.41,2.21-11.52-.16-12.73,7.56-.02.18-1.8.36-2.63.11-19.06-5.44-34.88,3.6-39.67,22.61-.41,1.57.45,4.21-2.88,4.16-3.71-.07-3.22-2.43-3.06-4.77h-.02Z"/>
    <path class="cls-32" d="M250.26,466.07c-.34.74-.67,1.46-1.01,2.21-1.71,1.33-2.68,3.28-4.19,4.84-7.25,7.43-21.71,7.27-28.73-3.49-6.48-9.92-2.83-20.47,4.97-25.78,6.25-4.25,13.19-4.5,19.66-1.01,7.13,3.85,10.46,10.26,9.86,18.54-.11,1.57-1.03,3.06-.56,4.7Z"/>
    <path class="cls-137" d="M250.26,466.07c.99-10.62-.67-20.41-12.33-23.96-10.53-3.22-19.3.43-23.33,11.12-3.62,9.61.83,17.41,9.07,21.96,9.36,5.15,17.84,2.32,24.23-6.25.31-.43.63-.83.97-1.24.14.2.25.41.38.63-5.78,10.12-14.53,13.5-25.02,8.93-10.17-4.41-14.13-13.23-10.51-23.81,3.73-10.94,12.49-15.62,23.51-12.35,12.17,3.6,16.04,12.85,13.03,25.02v-.05Z"/>
    <path class="cls-132" d="M276.31,424.98c1.75-.68,4.43,1.98,5.4-1.51,5.58,0,11.14.02,16.72.04,6.44,5.99-.83,2.09-1.94,2.72-1.62.9-4.19.92-3.1,4.14.41,1.22-.31,2.81-.52,4.25-4.03-3.42-11.38,3.35-13.7-4.14-.68-2.21-.68-4.28-2.86-5.51Z"/>
    <path class="cls-122" d="M423.06,423.54c-3.01,4.59-7.33,2.07-11.23,2.16-8.91.22-18.5-1.22-26.46,1.71-4.75,1.75-10.1-1.82-13.79,2.72-.16.18-1.35-.5-2.05-.76.61-1.55.99-4.25,1.89-4.46,2.41-.5,5.09-.13,7.56.36.72.13,1.15,1.8,1.71,2.77.29-1.51.59-3.01.85-4.52h41.51v.02Z"/>
    <path class="cls-10" d="M339.94,423.54c-10.62.68-21.24,1.4-31.88,1.96-.5.02-1.06-1.28-1.57-1.98h33.46v.02Z"/>
    <path class="cls-139" d="M248.62,378.68c-.16,5.47-.36,10.96-.45,16.43-.02,1.53-.16,2.7-2.11,2.45-.18-.07-.38-.11-.47-.25-2.43-4.75-6.66-3.96-10.73-3.42-3.8.52-7.04,2.36-9.99,4.75-15.75.36-31.5.74-47.23,1.03-1.4.02-2.81-.7-4.23-1.08,1.58-1.64,3.67-4.97,4.66-4.68,14.29,4.32,6.32-7.9,9.11-11.97.25-.92.99-1.17,1.8-1.37,3.65-.88,7.09-2.36,10.69-3.31,9.72-3.19,19.42-6.41,29.2-9.41,6.95-2.14,10.48-6.95,10.96-14.24.43-6.61.74-13.25.58-19.89-.09-3.96-1.87-5.94-5.89-6.03-4.68-.11-9.34-.02-14.02-.02h-14.83c-1.35,0-2.68.11-3.98.5-2.11.36-4.23.25-6.37.22-5.74-.61-8.57.92-10.64,6.34-4.97,13.05-9.29,26.33-13.3,39.71-.54,1.8-.34,3.53.27,5.27.25.74.56,1.62-.23,2.23-.7.54-1.4.07-1.96-.34-1.33-.94-2.3-.7-3.06.72-.38.7-.79,1.46-1.84,1.24-.47,4.84-3.31,9.9,1.48,14.27,1.26,1.12,1.08,1.33-4.16,2.97-.67-.52-.56-1.26-.59-1.98-.72-13.32,1.06-26.23,5.98-38.68,3.87-9.16,7.85-18.25,11.59-27.47,3.15-7.81,9.34-10.55,17.08-10.6,16.54-.11,33.16-.9,49.61.34,7.31.54,1.15,8.57,3.31,12.67-.07,14.53-.11,29.07-.18,43.61h-.07Z"/>
    <path class="cls-93" d="M160.73,404.55c.16.92.29,1.87.45,2.79-1.1,2.66-2.18,5.31-3.29,7.94-3.24-4.68-10.69-10.49,2.83-10.73Z"/>
    <path class="cls-93" d="M167.23,360.14c-4.57,13.19-6.26,26.75-5.38,40.63-.38,1.26-.77,2.54-1.15,3.8-.41-15.21-.18-30.31,6.52-44.46v.02Z"/>
    <path class="cls-93" d="M156.32,414.09c-3.31,2.93-4.37,3.87-5.4,4.79-1.21-1.69-2.72-3.26-3.46-5.15-.25-.65,1.75-3.08,2.21-2.95,2.07.63,3.94,1.89,6.66,3.31Z"/>
    <path class="cls-110" d="M157.49,427.55c-1.1,1.6,1.66,5.76-1.89,5.38-4.91-.54-1.69-5.24-2.3-8.01-.27-1.26,1.21-4.12,1.48-4.07,3.91.79,2.36,4.03,2.7,6.7Z"/>
    <path class="cls-3" d="M396.67,446.65c-.36,2.18,2.12,5.24-3.1,5.53-23.49,1.28-46.96,3.06-70.45,4.63-1.75-2.45-1.22-5.35-1.53-8.08.54-.13,1.08-.27,1.62-.41.56,1.57.56,1.53,2.63,1.19,3.47-.56,6.97-.16,10.46-.34,4.57-.22,9.18.2,13.72-.13,10.4-.76,20.81-.27,31.21-.52,3.65-.09,7.29-.54,10.94-.47,1.49.02,2.34-.65,2.95-1.89.52.16,1.06.31,1.57.47h-.02Z"/>
    <path class="cls-94" d="M395.09,446.18c-3.71,5.99-9.7,2.7-14.42,2.95-18.16.97-36.41.43-54.52,1.75-3.96.29-2.66-.92-2.97-2.54,3.98-.18,7.99-.38,11.97-.56,6.82.07,13.61-.22,20.43-.31,12.1-.13,24.21-.09,36.31-.5.92-.02,1.8-.04,2.5-.76h.68l.02-.02Z"/>
    <path class="cls-68" d="M394.39,446.2c-2.41,3.44-5.85,1.17-8.71,1.28-15.84.65-31.68.94-47.54,1.26-.99,0-2-.65-2.99-.99.74-.36,1.49-1.01,2.23-1.01,19.01-.22,38.03-.38,57.02-.54Z"/>
    <path class="cls-74" d="M321.56,448.74c.52,2.7,1.03,5.38,1.53,8.08-3.31.04-6.62.11-9.92.16-.41-6.01,3.15-7.97,8.37-8.24h.02Z"/>
    <path class="cls-2" d="M523.54,444.6c8.84-4.77,16.83-3.96,23.78,3.65,3.46,4.93,6.35,11.84,2.2,15.64-6.14,5.62-13.63,12.49-23.69,7.02-.99-.54-1.15-2.61-1.69-3.98,1.12-.68,2.18-.13,3.04.43,4.07,2.68,7.96,1.87,11.86-.34,2.14-1.22,2.16-3.62,2.95-5.56.38-.94.81-1.98.58-3.08-.11.94-.18,1.89-.5,2.81-2,6.14-7.67,9.5-14.58,6.32-1.12-.52-2.09-1.44-3.46-1.4-4.39-.2-4.9-2.9-4.79-6.64.29-9.85,5.83-14.02,15.01-14.2,1.91-.04,3.92,1.17,5.76,2.03,1.62.74,3.11,1.82,4.63,2.75-1.6-1.46-2.97-3.44-4.84-4.28-8.26-3.62-14.96-1.46-20,6.03-.92,1.37-2.05,2.63-3.08,3.94.43-1.66.45-3.6,1.35-4.95,1.53-2.27,3.6-4.16,5.44-6.21l.02.02Z"/>
    <path class="cls-91" d="M524.08,466.09c.47-.31,1.15-1.01,1.37-.88,9.43,5.35,15.03,3.28,15.98-8.1,0-.11.45-.2.68-.31.38.94,1.21,1.98,1.06,2.84-2.36,12.67-10.08,11.63-19.01,7.29-.02-.27-.05-.56-.09-.83h.02Z"/>
    <path class="cls-108" d="M269.18,422.91c.81-12.53,1.6-25.06,2.63-37.6.02-.34,2.84-.45,4.34-.65,0,12.04.02,24.07.04,36.11-2.34.72-4.66,1.42-7,2.14h-.02Z"/>
    <path class="cls-132" d="M303.16,436.55c-2.21-.31-4.61.38-4.07-2.18.36-1.71,1.94-3.17,2.97-4.77.97,1.82,2.05,3.6,2.81,5.51.11.27-1.37,1.15-1.69,1.42l-.02.02Z"/>
    <path class="cls-52" d="M164.51,383.54c1.62-1.91,2.3-7.04,6.08-1.82,0,0,.74-.36.74-.5-1.44-17.62,8.62-32.13,13.25-48.08,1.26-4.36,5.31-6.37,10.12-5.74.11,1.17-.88,1.28-1.6,1.67-3.62.7-5.8,3.02-7.02,6.34-3.2,8.75-6.37,17.5-9.2,26.37-2.07,4.16-.27,8.5-.63,12.73,0,.18-.13.47.18.58.09-.25.07-.52.05-.79,0-2.97-.07-5.92,0-8.89.09-3.47.85-4.19,4.34-4.3,1.44.86,1.22,2.3,1.24,3.6.07,3.96,0,7.9.02,11.86.02,3.94.25,4.14,3.94,3.22,2.61-.63,5.2-1.17,7.47-2.86,1.3-.97,3.17-.27,4.73-.74.99.2,1.8.52,1.26,1.78-4.14,1.31-8.28,2.61-12.4,3.94-5.62-.65-6.41,2.54-5.83,7.11.43,3.28-2.36,4.75-3.85,2.63-3.4-4.79-3.87-.18-5.74.92-1.64.97-3.73,1.17-5.62,1.71-.54-3.58-1.06-7.16-1.6-10.75h.07Z"/>
    <path class="cls-44" d="M224.88,398.64c3.64-5.72,9.54-5.83,15.34-6.1,3.47-.16,5.17,1.87,5.85,5.02-2.36,10.87-10.82,3.35-16.18,5.24-2.77.97-5.42-.27-5-4.16h-.02Z"/>
    <path class="cls-90" d="M168.81,437.16c1.28,1.17,4.25-1.55,4.23,2.05-.02,3.67-2.99,1.73-4.43,1.75-1.44,0-4.52,1.84-4.37-1.82.13-3.62,3.2-.72,4.57-1.98Z"/>
    <path class="cls-138" d="M216.58,458.42c.54-7.38,4.32-13.93,11.39-15.12,11.36-1.89,19.87,3.01,20.16,15.95.22,10.19-6.23,15.82-15.7,15.68-9.59-.13-15.25-6.19-15.84-16.52Z"/>
    <path class="cls-10" d="M198.51,376.5c-5.13,1.69-10.22,4.5-15.39,4.66-4.01.14-1.4-4.75-1.78-7.31-.61-4.09-.45-8.3-.63-12.47-.38-.27-.56-.63-.63-1.08.07-2.77,1.58-5.08,2.5-7.58,2.52-6.8,5.17-13.52,7.9-20.23.59-1.44.92-3.15,2.56-3.94.56-.38,1.12-.79,1.69-1.17,2.29-.02,4.59-.05,6.88-.07,2.95-.43,5.92-.16,8.86-.18,8.26-.05,16.49,0,24.75,0,1.15,0,2.09.61,2.99,1.1,1.15.65,2.47,1.6,2,3.15-.43,1.37-1.91,1.1-3.04,1.1-7.9.05-15.82,0-23.72,0-1.26,0-2.52-.05-3.73.31-3.78.38-6.01,2.63-7.16,6.05-2.99,8.86-6.05,17.69-8.64,26.69-.43,1.51-.77,2.99.45,4.32.23.25.41.72.79.61s.27-.58.27-.92c.05-1.53-.07-3.06.13-4.59.23-1.73,1.26-2.86,2.93-3.08,1.35-.18,3.06-1.01,3.83,1.08-2.75,1.19-2.9,3.49-2.9,6.1,0,2.47.86,5.15-.9,7.45h-.02Z"/>
    <path class="cls-37" d="M208.72,332.15c9.05-.16,18.09-.29,27.14-.54,1.33-.05,2.63-.58,3.94-.9-1.62-1.06-3.22-2.95-4.86-3.02-11.09-.36-22.21-.31-33.32-.41,11.47-.14,22.97-.45,34.45-.22,1.73.05,4.45,2.32,4.95,4.05,5.76,20.45-2.2,34.81-22.21,40.84-6.41,1.94-12.8,4-19.22,6.01-.36-.5-.7-.99-1.06-1.48,1.96-4.48-4.23-11.14,3.76-14,1.94-.07,1.98,1.53,2.3,2.75.52,2.11.31,4.3.31,6.44,0,1.78.77,2.2,2.39,1.67,7.94-2.63,16-4.86,23.83-7.76,3.76-1.39,6.23-4.48,6.82-8.42,1.06-7.2,1.33-14.47,1.19-21.73-.05-2.11-1.37-2.2-2.9-2.2-7.81-.02-15.64,0-23.44-.02-1.39,0-2.92.31-4-1.03h-.05Z"/>
    <path class="cls-31" d="M532.36,450.84c5,.52,7.99,2.93,7.85,7.94-.13,5.02-3.01,8.3-8.03,8.26-4.95-.04-7.63-3.38-7.54-8.35.09-5,3.22-7.25,7.72-7.85h0Z"/>
    <path class="cls-120" d="M193.04,328.55c-4.14,10.58-8.3,21.13-12.44,31.7-1.24,1.1-2.66,1.48-4.25,1.15,3.33-9.54,6.55-19.15,10.1-28.62.99-2.66,3.35-4.43,6.59-4.23Z"/>
    <path class="cls-48" d="M176.35,361.4c1.42-.38,2.84-.77,4.25-1.15.05.38.07.74.11,1.12-7,3.42-1.55,9.7-3.28,14.31-.23.58-.34,1.19-.49,1.8-.49-.36-1.44-.77-1.42-1.08.56-5-2.3-10.17.79-15.03l.04.02Z"/>
    <path class="cls-47" d="M224.38,452.05c8.59-6.28,14.96-4.75,18.83,5.4-.22.41-.18.88-.18,1.31,0,.92-.31,1.66-1.35,1.62-.94-.04-1.03-.85-1.08-1.6,0-.36,0-.7-.11-1.06.09.36.05.72.11,1.06.58,2.84-.34,5.06-2.47,6.97-2.59,2.32-6.91,3.06-9.79,1.53-3.49-1.84-5.22-5.38-4.68-9.25.2-1.44-1.28-2.84-.2-4.43.34-.5.47-1.15.92-1.6v.04Z"/>
    <path class="cls-45" d="M224.38,452.05c-.05,1.37-.29,2.79-.11,4.14,1.69,12.38,6.17,16.85,15.57,5.09.92-1.15-.38-4.07-.63-6.16,0-.13.09-.29.16-.45.47.83.97,1.64,1.39,2.5.43.88.79,1.8,1.17,2.72.43-.81.88-1.62,1.31-2.43,2.25,5.9-1.53,10.1-5.49,12.28-2.81,1.55-8.23.88-11.2-.92-6.3-3.8-6.23-10.08-3.35-16.38.11-.27.79-.27,1.22-.38h-.02Z"/>
    <path class="cls-39" d="M208.72,332.15c4.95,0,9.92-.36,14.83.11,5.51.54,14.89-2.97,15.91,1.51,4.55,20.16-.52,32.27-13.91,34.25-7.49,1.1-21.11,18.18-23.29-5.53-4.7-.79-6.7,1.1-6.1,5.89.18,1.37-.07,2.81-.13,4.23-.34-.18-.83-.29-1.01-.58-1.01-1.69-3.42-2.56-2.45-5.4,3.2-9.41,6.1-18.9,9.2-28.31,1.1-3.31,2.99-5.94,6.93-6.17h.02Z"/>
    <path class="cls-45" d="M230.82,462.76c-.92-.11-2.68-1.28-2.56-3.85.11-2.41,1.75-3.67,4.16-3.56,2.39.11,3.89,1.44,3.85,3.89-.05,2.43-1.35,3.8-5.45,3.53v-.02Z"/>
  </g>
</svg>